<svg xmlns="http://www.w3.org/2000/svg" width="281.133" height="281.872" viewBox="0 0 281.133 281.872">
  <g id="logo-concept-1-v1" transform="translate(-1062.455 -278.848)">
    <rect id="Rectangle_32" data-name="Rectangle 32" width="231.906" height="231.906" rx="22" transform="translate(1087.069 278.848)" fill="#013b4c"/>
    <g id="microbes" transform="translate(2 68.492)">
      <path id="Path_506" data-name="Path 506" d="M38.183,29.671c-10.231-9.941-8.24-23.2-15.2-27.118S9.041-1.78,3.855,4.925.126,20.4,5.945,25.844,20.352,36.1,26.676,41.8s14.379,25.065,20.7,30.251,16.052,1.885,18.767-1.891,4.8-11.316.9-17.105c-1.315-1.951-1.877-3.817-8.576-7.138S44.966,36.262,38.183,29.671Z" transform="matrix(0.921, -0.391, 0.391, 0.921, 1200.518, 271.655)" fill="#fff"/>
      <path id="Path_508" data-name="Path 508" d="M38.183,29.671c-10.231-9.941-8.24-23.2-15.2-27.118S9.041-1.78,3.855,4.925.126,20.4,5.945,25.844,20.352,36.1,26.676,41.8s14.379,25.065,20.7,30.251,16.052,1.885,18.767-1.891,4.8-11.316.9-17.105c-1.315-1.951-1.877-3.817-8.576-7.138S44.966,36.262,38.183,29.671Z" transform="matrix(0.921, -0.391, 0.391, 0.921, 1118.357, 271.655)" fill="#fff"/>
      <path id="Path_509" data-name="Path 509" d="M38.183,29.671c-10.231-9.941-8.24-23.2-15.2-27.118S9.041-1.78,3.855,4.925.126,20.4,5.945,25.844,20.352,36.1,26.676,41.8s14.379,25.065,20.7,30.251,16.052,1.885,18.767-1.891,4.8-11.316.9-17.105c-1.315-1.951-1.877-3.817-8.576-7.138S44.966,36.262,38.183,29.671Z" transform="matrix(0.921, -0.391, 0.391, 0.921, 1200.518, 344.363)" fill="#fff"/>
      <path id="Path_510" data-name="Path 510" d="M38.183,29.671c-10.231-9.941-8.24-23.2-15.2-27.118S9.041-1.78,3.855,4.925.126,20.4,5.945,25.844,20.352,36.1,26.676,41.8s14.379,25.065,20.7,30.251,16.052,1.885,18.767-1.891,4.8-11.316.9-17.105c-1.315-1.951-1.877-3.817-8.576-7.138S44.966,36.262,38.183,29.671Z" transform="matrix(0.921, -0.391, 0.391, 0.921, 1118.357, 353.606)" fill="#fff"/>
      <g id="artificial-intelligence-ai" transform="translate(1235.504 322.358)">
        <path id="Path_1" data-name="Path 1" d="M18.254,22.027a.846.846,0,0,0-.643,0,.809.809,0,0,0-.264.178l-.006,0a.76.76,0,0,0-.114.144.88.88,0,0,0-.049.089H15.842V21.282a2.886,2.886,0,0,1-.637.212c-.038.008-.074.015-.112.021v1.3a.376.376,0,0,0,.374.374H17.19a.71.71,0,0,0,.044.076.819.819,0,0,0,.1.125l.006.006a.834.834,0,0,0,.273.182.854.854,0,0,0,.322.063.829.829,0,0,0,.315-.061l.006,0a.857.857,0,0,0,.273-.182.834.834,0,0,0,.182-.273.854.854,0,0,0,.063-.322.871.871,0,0,0-.063-.322.834.834,0,0,0-.182-.273.933.933,0,0,0-.277-.18Zm-6.1-7.934H10.585l-.224.736H8.952l1.682-4.468h1.511l1.676,4.468H12.375l-.224-.736Zm-.292-.969-.489-1.606-.491,1.606Zm2.351-2.765h1.386v4.468H14.209V10.359ZM13.153,5.778a2.446,2.446,0,0,0-.624.675.1.1,0,0,1-.036.036.124.124,0,0,1-.169-.036,2.446,2.446,0,0,0-.624-.675,2,2,0,0,0-.783-.345h0a2.131,2.131,0,0,0-.8-.008,2.416,2.416,0,0,0-.787.29,2.539,2.539,0,0,0-.635.527,2.216,2.216,0,0,0-.4.679h0c-.015.038-.028.078-.04.121s-.023.08-.032.123a.12.12,0,0,1-.116.1,2.313,2.313,0,0,0-.827.3,2.844,2.844,0,0,0-.728.633,3.191,3.191,0,0,0-.516.9,3.344,3.344,0,0,0-.205,1.037c0,.049,0,.1,0,.144s0,.091,0,.14a.124.124,0,0,1-.051.108,4.4,4.4,0,0,0-.47.387,3.457,3.457,0,0,0-.374.425,2.781,2.781,0,0,0-.391.74A2.522,2.522,0,0,0,4.5,13.621a2.806,2.806,0,0,0,.324.713h0a3.3,3.3,0,0,0,.271.374,3.6,3.6,0,0,0,.33.343.126.126,0,0,1,.038.114,2.863,2.863,0,0,0-.057.476,2.927,2.927,0,0,0,.025.474,2.852,2.852,0,0,0,.239.8,3.039,3.039,0,0,0,.47.724,3.111,3.111,0,0,0,.605.542,2.892,2.892,0,0,0,.7.353,2.524,2.524,0,0,0,.33.087,2.034,2.034,0,0,0,.315.038.122.122,0,0,1,.123.1,2.105,2.105,0,0,0,.3.7,2.428,2.428,0,0,0,.542.588,2.471,2.471,0,0,0,.91.446,2.132,2.132,0,0,0,.961.025,2.048,2.048,0,0,0,.825-.377,2.5,2.5,0,0,0,.641-.734.111.111,0,0,1,.049-.044.122.122,0,0,1,.165.051,2.264,2.264,0,0,0,.546.681,1.977,1.977,0,0,0,.732.381,2.168,2.168,0,0,0,1.016.021,2.639,2.639,0,0,0,1-.446,2.576,2.576,0,0,0,.607-.605,2.193,2.193,0,0,0,.341-.717.121.121,0,0,1,.1-.1,2.316,2.316,0,0,0,.9-.377,2.922,2.922,0,0,0,.747-.749,3.23,3.23,0,0,0,.446-.952,3.378,3.378,0,0,0,.123-1.058.118.118,0,0,1,.053-.11A4.26,4.26,0,0,0,19.7,15a3.31,3.31,0,0,0,.385-.434h0a2.721,2.721,0,0,0,.381-.709,2.538,2.538,0,0,0,.144-.764,2.612,2.612,0,0,0-.087-.734,2.807,2.807,0,0,0-.292-.7l0,0a3.277,3.277,0,0,0-.294-.421,3.483,3.483,0,0,0-.368-.383.124.124,0,0,1-.04-.116,2.822,2.822,0,0,0,.055-.436,2.926,2.926,0,0,0-.013-.432,2.824,2.824,0,0,0-.224-.834,3.077,3.077,0,0,0-.47-.751,3.211,3.211,0,0,0-.616-.561,2.83,2.83,0,0,0-.707-.362l-.006,0a2.381,2.381,0,0,0-.389-.1h0a2.088,2.088,0,0,0-.379-.028.123.123,0,0,1-.127-.093,2.083,2.083,0,0,0-.08-.254,2.415,2.415,0,0,0-.116-.25,2.314,2.314,0,0,0-.44-.573,2.578,2.578,0,0,0-.605-.429,2.358,2.358,0,0,0-.728-.231,2.131,2.131,0,0,0-.732.021,2.21,2.21,0,0,0-.787.355ZM16.613,8.16a.126.126,0,0,1,.11-.087,1.169,1.169,0,0,1,.271.013,1.685,1.685,0,0,1,.279.07,2.046,2.046,0,0,1,.514.264,2.3,2.3,0,0,1,.444.406l0,0a2.22,2.22,0,0,1,.341.544,2.01,2.01,0,0,1,.161.595,1.984,1.984,0,0,1,0,.434,1.941,1.941,0,0,1-.1.421l0,.008a.419.419,0,0,0,0,.264.413.413,0,0,0,.163.212l.006,0a2.676,2.676,0,0,1,.394.358,2.44,2.44,0,0,1,.3.413,1.963,1.963,0,0,1,.209.493,1.672,1.672,0,0,1-.038,1.022,1.943,1.943,0,0,1-.26.48l0,0a2.523,2.523,0,0,1-.389.415,3.626,3.626,0,0,1-.516.364l-.006,0a.4.4,0,0,0-.169.19.421.421,0,0,0-.028.25l0,.017a2.609,2.609,0,0,1-.044.914,2.384,2.384,0,0,1-.36.817,2.145,2.145,0,0,1-.423.457,1.61,1.61,0,0,1-.506.277h0a.123.123,0,0,1-.152-.08,2.129,2.129,0,0,0-1.35-1.392l-.015-.008a.407.407,0,0,0-.3-.021.379.379,0,0,0-.226.19l-.006.013a.4.4,0,0,0,.176.529c.584.3,1.016.525,1.009,1.257a1.23,1.23,0,0,1-.184.62,1.827,1.827,0,0,1-.5.527,1.85,1.85,0,0,1-.673.309,1.383,1.383,0,0,1-.677,0,1.234,1.234,0,0,1-.768-.645,3.376,3.376,0,0,1-.3-.914.093.093,0,0,1,0-.034.324.324,0,0,0-.273-.3.724.724,0,0,0-.214-.03.79.79,0,0,0-.214.03.328.328,0,0,0-.271.3.143.143,0,0,1,0,.03,2.838,2.838,0,0,1-.491,1.077,1.361,1.361,0,0,1-.793.52,1.382,1.382,0,0,1-.624-.021,1.724,1.724,0,0,1-.595-.3,1.593,1.593,0,0,1-.423-.493,1.226,1.226,0,0,1-.154-.582c0-.77.465-1.028,1.081-1.343a.4.4,0,0,0-.355-.711l-.006,0a2.268,2.268,0,0,0-1.42,1.447.125.125,0,0,1-.123.091,1.3,1.3,0,0,1-.218-.025,1.422,1.422,0,0,1-.212-.059,2.133,2.133,0,0,1-.5-.256,2.327,2.327,0,0,1-.438-.394,2.236,2.236,0,0,1-.341-.525,2.046,2.046,0,0,1-.173-.573v0a1.86,1.86,0,0,1-.008-.461,2,2,0,0,1,.1-.455l0-.006a.414.414,0,0,0,0-.258l0,0a.413.413,0,0,0-.159-.212l0,0a2.606,2.606,0,0,1-.366-.328,2.4,2.4,0,0,1-.288-.377,2.081,2.081,0,0,1-.224-.5,1.8,1.8,0,0,1-.072-.52,1.7,1.7,0,0,1,.1-.544,2,2,0,0,1,.273-.51,2.564,2.564,0,0,1,.383-.415,3.534,3.534,0,0,1,.5-.368.409.409,0,0,0,.154-.169l0-.006a.4.4,0,0,0,.036-.226.1.1,0,0,1,0-.025v0c-.011-.074-.017-.148-.021-.22s0-.157,0-.233a2.5,2.5,0,0,1,.15-.772,2.363,2.363,0,0,1,.381-.671,1.99,1.99,0,0,1,.432-.4,1.555,1.555,0,0,1,.484-.22h0a.123.123,0,0,1,.152.08,2.03,2.03,0,0,0,.611.969l.013.011a.388.388,0,0,0,.279.1.384.384,0,0,0,.269-.123l.006-.008a.388.388,0,0,0,.1-.279A.4.4,0,0,0,9.4,8.583a1.186,1.186,0,0,1-.387-.618,1.173,1.173,0,0,1,.013-.776,1.4,1.4,0,0,1,.271-.449A1.668,1.668,0,0,1,9.709,6.4l.006,0a1.633,1.633,0,0,1,.514-.195,1.336,1.336,0,0,1,.518,0,1.322,1.322,0,0,1,.688.4,2.311,2.311,0,0,1,.476.81l0,0a.429.429,0,0,0,.358.25.968.968,0,0,0,.235.015h0a.892.892,0,0,0,.228-.042.354.354,0,0,0,.25-.2V7.39a1.125,1.125,0,0,1,.347-.719,1.6,1.6,0,0,1,.762-.468,1.349,1.349,0,0,1,.47-.011,1.6,1.6,0,0,1,.465.15l.013,0a1.735,1.735,0,0,1,.408.288,1.573,1.573,0,0,1,.3.385,1.193,1.193,0,0,1,.138.745.987.987,0,0,1-.239.618l0,0a.393.393,0,0,0-.091.288.388.388,0,0,0,.131.26l.013.011A.394.394,0,0,0,16.24,8.9l.011-.015a1.744,1.744,0,0,0,.362-.724Zm4.646,10.354a.846.846,0,0,1,0-.643.809.809,0,0,1,.178-.264l0-.006a.76.76,0,0,1,.144-.114.88.88,0,0,1,.089-.049V16.1H20.032c0-.087,0-.173,0-.262a.134.134,0,0,1,.059-.125,4.629,4.629,0,0,0,.463-.362h1.494a.376.376,0,0,1,.374.374V17.45a.71.71,0,0,1,.076.044.819.819,0,0,1,.125.1l.006.006a.834.834,0,0,1,.182.273.854.854,0,0,1,.063.322.837.837,0,0,1-.061.315l0,.006a.857.857,0,0,1-.182.273.834.834,0,0,1-.273.182.854.854,0,0,1-.322.063.871.871,0,0,1-.322-.063.834.834,0,0,1-.273-.182.933.933,0,0,1-.18-.277Zm2.378-4.284H21.4c.038-.083.072-.165.1-.25a2.661,2.661,0,0,0,.127-.5h2c.015-.028.03-.055.047-.083a.785.785,0,0,1,.11-.138.823.823,0,0,1,.273-.182.854.854,0,0,1,.322-.063.837.837,0,0,1,.315.061l.006,0a.857.857,0,0,1,.273.182.834.834,0,0,1,.182.273.854.854,0,0,1,.063.322.871.871,0,0,1-.063.322.836.836,0,0,1-.455.455.854.854,0,0,1-.322.063.837.837,0,0,1-.315-.061l-.006,0a.857.857,0,0,1-.273-.182.826.826,0,0,1-.108-.133l0-.006c-.015-.025-.03-.053-.044-.08Zm.711-2.048H21.54a3.293,3.293,0,0,0-.3-.688l0-.006-.032-.055h2.772V8.99c-.021-.013-.042-.025-.063-.04a.86.86,0,0,1-.116-.1.834.834,0,0,1-.182-.273.842.842,0,0,1,.182-.916.834.834,0,0,1,.273-.182.854.854,0,0,1,.322-.063.871.871,0,0,1,.322.063.836.836,0,0,1,.455.455.854.854,0,0,1,.063.322.837.837,0,0,1-.061.315l0,.006a.857.857,0,0,1-.182.273.85.85,0,0,1-.26.178v2.776a.379.379,0,0,1-.377.377Zm-2.934-1.807h-.956a3.132,3.132,0,0,0,.047-.419c0-.112,0-.222,0-.33h.537v-1.1a.674.674,0,0,1-.085-.049.8.8,0,0,1-.142-.114h0a.834.834,0,0,1-.182-.273.852.852,0,0,1-.063-.319.84.84,0,0,1,.239-.588l.006-.006a.834.834,0,0,1,.273-.182.846.846,0,0,1,.643,0,.841.841,0,0,1,.267.178l.006,0a.824.824,0,0,1,.18.267l0,.006a.846.846,0,0,1,0,.643.872.872,0,0,1-.176.267L22,8.361a.877.877,0,0,1-.135.11.572.572,0,0,1-.078.044V10a.373.373,0,0,1-.11.264.376.376,0,0,1-.264.11ZM6.586,3.971a.846.846,0,0,0,.643,0,.809.809,0,0,0,.264-.178l.006,0a.76.76,0,0,0,.114-.144.88.88,0,0,0,.049-.089H9V4.71a2.781,2.781,0,0,1,.749-.269V3.182a.376.376,0,0,0-.374-.374H7.65a.71.71,0,0,0-.044-.076.819.819,0,0,0-.1-.125L7.5,2.6a.834.834,0,0,0-.273-.182A.854.854,0,0,0,6.9,2.355a.829.829,0,0,0-.315.061l-.006,0a.857.857,0,0,0-.273.182.834.834,0,0,0-.182.273.854.854,0,0,0-.063.322.871.871,0,0,0,.063.322.834.834,0,0,0,.182.273.926.926,0,0,0,.277.182Zm4.286-2.378v2.89a2.325,2.325,0,0,1,.721.351l.025.019c0-.006,0-.013,0-.019V1.593c.028-.015.055-.03.083-.047a.785.785,0,0,0,.138-.11.839.839,0,0,0,.245-.595.837.837,0,0,0-.061-.315l0-.006a.857.857,0,0,0-.182-.273.834.834,0,0,0-.273-.182A.854.854,0,0,0,11.247,0a.871.871,0,0,0-.322.063.836.836,0,0,0-.455.455.854.854,0,0,0-.063.322.837.837,0,0,0,.061.315l0,.006a.857.857,0,0,0,.182.273.826.826,0,0,0,.133.108l0,0c.028.017.053.032.083.047ZM12.919.882V5.109a2.562,2.562,0,0,1,.319-.275,2.243,2.243,0,0,1,.429-.245V1.255h2.444c.013.021.025.042.04.063a.86.86,0,0,0,.1.116.834.834,0,0,0,.273.182.854.854,0,0,0,.322.063.863.863,0,0,0,.322-.063.836.836,0,0,0,.455-.455A.854.854,0,0,0,17.683.84.871.871,0,0,0,17.62.518a.834.834,0,0,0-.182-.273.9.9,0,0,0-.277-.182A.852.852,0,0,0,16.841,0a.837.837,0,0,0-.315.061l-.006,0a.857.857,0,0,0-.273.182.85.85,0,0,0-.178.26H13.293a.373.373,0,0,0-.264.11.381.381,0,0,0-.11.267Zm1.807,2.934V4.4a2.128,2.128,0,0,1,.231.023,2.551,2.551,0,0,1,.518.131V4.193h1.1a.674.674,0,0,0,.049.085.8.8,0,0,0,.114.142h0a.834.834,0,0,0,.273.182.852.852,0,0,0,.319.063.84.84,0,0,0,.588-.239l.006-.006a.834.834,0,0,0,.182-.273.846.846,0,0,0,0-.643.841.841,0,0,0-.178-.267l0-.006a.824.824,0,0,0-.267-.18l-.006,0a.846.846,0,0,0-.643,0,.872.872,0,0,0-.267.176l-.006.006a.877.877,0,0,0-.11.135.573.573,0,0,0-.044.078H15.1a.373.373,0,0,0-.264.11.364.364,0,0,0-.11.262ZM3.971,7.447a.846.846,0,0,1,0,.643.809.809,0,0,1-.178.264l0,.006a.76.76,0,0,1-.144.114.88.88,0,0,1-.089.049V9.859H4.942v.066c0,.051,0,.1,0,.159a.138.138,0,0,1-.057.123,4.827,4.827,0,0,0-.493.4H3.186a.376.376,0,0,1-.374-.374V8.512a.71.71,0,0,1-.076-.044.819.819,0,0,1-.125-.1L2.6,8.359a.834.834,0,0,1-.182-.273.854.854,0,0,1-.063-.322.837.837,0,0,1,.061-.315l0-.006A.857.857,0,0,1,2.6,7.17a.834.834,0,0,1,.273-.182A.854.854,0,0,1,3.2,6.925a.871.871,0,0,1,.322.063.834.834,0,0,1,.273.182.971.971,0,0,1,.178.277ZM1.593,11.732H3.582c-.034.076-.063.154-.091.231a2.828,2.828,0,0,0-.127.516H1.593c-.015.028-.03.055-.047.083a.785.785,0,0,1-.11.138.823.823,0,0,1-.273.182.854.854,0,0,1-.322.063.837.837,0,0,1-.315-.061l-.006,0A.857.857,0,0,1,.248,12.7a.834.834,0,0,1-.182-.273A.854.854,0,0,1,0,12.1a.871.871,0,0,1,.063-.322.836.836,0,0,1,.455-.455.854.854,0,0,1,.322-.063.837.837,0,0,1,.315.061l.006,0a.857.857,0,0,1,.273.182.826.826,0,0,1,.108.133l0,.006.044.083ZM.882,13.78H3.47a3.162,3.162,0,0,0,.345.738v0l0,.008H1.255v2.444c.021.013.042.025.063.04a.86.86,0,0,1,.116.1.834.834,0,0,1,.182.273.854.854,0,0,1,.063.322.863.863,0,0,1-.063.322.857.857,0,0,1-.182.273.834.834,0,0,1-.273.182.854.854,0,0,1-.322.063.871.871,0,0,1-.322-.063A.834.834,0,0,1,.245,18.3a.953.953,0,0,1-.182-.277A.854.854,0,0,1,0,17.7a.837.837,0,0,1,.061-.315l0-.006a.857.857,0,0,1,.182-.273.85.85,0,0,1,.26-.178V14.152a.373.373,0,0,1,.11-.264.389.389,0,0,1,.267-.108Zm2.934,1.807h.7a3.092,3.092,0,0,0-.04.413,2.957,2.957,0,0,0,.006.336h-.29v1.1a.674.674,0,0,1,.085.049.8.8,0,0,1,.142.114h0a.834.834,0,0,1,.182.273.846.846,0,0,1,0,.643.872.872,0,0,1-.176.267l-.006.006a.834.834,0,0,1-.273.182.846.846,0,0,1-.643,0,.841.841,0,0,1-.267-.178l-.006,0a.824.824,0,0,1-.18-.267l0-.006a.846.846,0,0,1,0-.643.872.872,0,0,1,.176-.267l.006-.006a.877.877,0,0,1,.135-.11.572.572,0,0,1,.078-.044V15.963a.373.373,0,0,1,.11-.264.358.358,0,0,1,.264-.112ZM13.97,24.4v-2.96a2.184,2.184,0,0,1-.743-.4l0,0v3.37c-.028.015-.055.03-.083.047a.785.785,0,0,0-.138.11.839.839,0,0,0-.245.595.837.837,0,0,0,.061.315l0,.006a.857.857,0,0,0,.182.273.834.834,0,0,0,.273.182A.854.854,0,0,0,13.6,26a.871.871,0,0,0,.322-.063.836.836,0,0,0,.455-.455.854.854,0,0,0,.063-.322.837.837,0,0,0-.061-.315l0-.006a.857.857,0,0,0-.182-.273.826.826,0,0,0-.133-.108l-.006,0c-.028-.017-.055-.032-.083-.047Zm-2.048.711V20.85a2.521,2.521,0,0,1-.279.245,2.319,2.319,0,0,1-.47.277v3.372H8.729c-.013-.021-.025-.042-.04-.063a.86.86,0,0,0-.1-.116.834.834,0,0,0-.273-.182.842.842,0,0,0-.916.182.834.834,0,0,0-.182.273.854.854,0,0,0-.063.322.871.871,0,0,0,.063.322.836.836,0,0,0,.455.455A.854.854,0,0,0,8,26a.837.837,0,0,0,.315-.061l.006,0a.857.857,0,0,0,.273-.182.85.85,0,0,0,.178-.26h2.776a.373.373,0,0,0,.264-.11.383.383,0,0,0,.112-.269Zm-1.807-2.934v-.616a2.572,2.572,0,0,1-.491-.074c-.087-.021-.173-.049-.258-.078v.4h-1.1a.674.674,0,0,0-.049-.085.8.8,0,0,0-.114-.142h0a.834.834,0,0,0-.273-.182.852.852,0,0,0-.319-.063.84.84,0,0,0-.588.239l-.006,0a.834.834,0,0,0-.182.273.846.846,0,0,0,0,.643.841.841,0,0,0,.178.267l0,.006a.824.824,0,0,0,.267.18l.006,0a.854.854,0,0,0,.322.063.84.84,0,0,0,.588-.239l.006-.006a.877.877,0,0,0,.11-.135.572.572,0,0,0,.044-.078H9.741a.376.376,0,0,0,.374-.374Z" transform="translate(4)" fill="#fff"/>
      </g>
      <g id="artificial-intelligence-ai-2" data-name="artificial-intelligence-ai" transform="translate(1144.504 322.358)">
        <path id="Path_1-2" data-name="Path 1" d="M18.254,22.027a.846.846,0,0,0-.643,0,.809.809,0,0,0-.264.178l-.006,0a.76.76,0,0,0-.114.144.88.88,0,0,0-.049.089H15.842V21.282a2.886,2.886,0,0,1-.637.212c-.038.008-.074.015-.112.021v1.3a.376.376,0,0,0,.374.374H17.19a.71.71,0,0,0,.044.076.819.819,0,0,0,.1.125l.006.006a.834.834,0,0,0,.273.182.854.854,0,0,0,.322.063.829.829,0,0,0,.315-.061l.006,0a.857.857,0,0,0,.273-.182.834.834,0,0,0,.182-.273.854.854,0,0,0,.063-.322.871.871,0,0,0-.063-.322.834.834,0,0,0-.182-.273.933.933,0,0,0-.277-.18Zm-6.1-7.934H10.585l-.224.736H8.952l1.682-4.468h1.511l1.676,4.468H12.375l-.224-.736Zm-.292-.969-.489-1.606-.491,1.606Zm2.351-2.765h1.386v4.468H14.209V10.359ZM13.153,5.778a2.446,2.446,0,0,0-.624.675.1.1,0,0,1-.036.036.124.124,0,0,1-.169-.036,2.446,2.446,0,0,0-.624-.675,2,2,0,0,0-.783-.345h0a2.131,2.131,0,0,0-.8-.008,2.416,2.416,0,0,0-.787.29,2.539,2.539,0,0,0-.635.527,2.216,2.216,0,0,0-.4.679h0c-.015.038-.028.078-.04.121s-.023.08-.032.123a.12.12,0,0,1-.116.1,2.313,2.313,0,0,0-.827.3,2.844,2.844,0,0,0-.728.633,3.191,3.191,0,0,0-.516.9,3.344,3.344,0,0,0-.205,1.037c0,.049,0,.1,0,.144s0,.091,0,.14a.124.124,0,0,1-.051.108,4.4,4.4,0,0,0-.47.387,3.457,3.457,0,0,0-.374.425,2.781,2.781,0,0,0-.391.74A2.522,2.522,0,0,0,4.5,13.621a2.806,2.806,0,0,0,.324.713h0a3.3,3.3,0,0,0,.271.374,3.6,3.6,0,0,0,.33.343.126.126,0,0,1,.038.114,2.863,2.863,0,0,0-.057.476,2.927,2.927,0,0,0,.025.474,2.852,2.852,0,0,0,.239.8,3.039,3.039,0,0,0,.47.724,3.111,3.111,0,0,0,.605.542,2.892,2.892,0,0,0,.7.353,2.524,2.524,0,0,0,.33.087,2.034,2.034,0,0,0,.315.038.122.122,0,0,1,.123.1,2.105,2.105,0,0,0,.3.7,2.428,2.428,0,0,0,.542.588,2.471,2.471,0,0,0,.91.446,2.132,2.132,0,0,0,.961.025,2.048,2.048,0,0,0,.825-.377,2.5,2.5,0,0,0,.641-.734.111.111,0,0,1,.049-.044.122.122,0,0,1,.165.051,2.264,2.264,0,0,0,.546.681,1.977,1.977,0,0,0,.732.381,2.168,2.168,0,0,0,1.016.021,2.639,2.639,0,0,0,1-.446,2.576,2.576,0,0,0,.607-.605,2.193,2.193,0,0,0,.341-.717.121.121,0,0,1,.1-.1,2.316,2.316,0,0,0,.9-.377,2.922,2.922,0,0,0,.747-.749,3.23,3.23,0,0,0,.446-.952,3.378,3.378,0,0,0,.123-1.058.118.118,0,0,1,.053-.11A4.26,4.26,0,0,0,19.7,15a3.31,3.31,0,0,0,.385-.434h0a2.721,2.721,0,0,0,.381-.709,2.538,2.538,0,0,0,.144-.764,2.612,2.612,0,0,0-.087-.734,2.807,2.807,0,0,0-.292-.7l0,0a3.277,3.277,0,0,0-.294-.421,3.483,3.483,0,0,0-.368-.383.124.124,0,0,1-.04-.116,2.822,2.822,0,0,0,.055-.436,2.926,2.926,0,0,0-.013-.432,2.824,2.824,0,0,0-.224-.834,3.077,3.077,0,0,0-.47-.751,3.211,3.211,0,0,0-.616-.561,2.83,2.83,0,0,0-.707-.362l-.006,0a2.381,2.381,0,0,0-.389-.1h0a2.088,2.088,0,0,0-.379-.028.123.123,0,0,1-.127-.093,2.083,2.083,0,0,0-.08-.254,2.415,2.415,0,0,0-.116-.25,2.314,2.314,0,0,0-.44-.573,2.578,2.578,0,0,0-.605-.429,2.358,2.358,0,0,0-.728-.231,2.131,2.131,0,0,0-.732.021,2.21,2.21,0,0,0-.787.355ZM16.613,8.16a.126.126,0,0,1,.11-.087,1.169,1.169,0,0,1,.271.013,1.685,1.685,0,0,1,.279.07,2.046,2.046,0,0,1,.514.264,2.3,2.3,0,0,1,.444.406l0,0a2.22,2.22,0,0,1,.341.544,2.01,2.01,0,0,1,.161.595,1.984,1.984,0,0,1,0,.434,1.941,1.941,0,0,1-.1.421l0,.008a.419.419,0,0,0,0,.264.413.413,0,0,0,.163.212l.006,0a2.676,2.676,0,0,1,.394.358,2.44,2.44,0,0,1,.3.413,1.963,1.963,0,0,1,.209.493,1.672,1.672,0,0,1-.038,1.022,1.943,1.943,0,0,1-.26.48l0,0a2.523,2.523,0,0,1-.389.415,3.626,3.626,0,0,1-.516.364l-.006,0a.4.4,0,0,0-.169.19.421.421,0,0,0-.028.25l0,.017a2.609,2.609,0,0,1-.044.914,2.384,2.384,0,0,1-.36.817,2.145,2.145,0,0,1-.423.457,1.61,1.61,0,0,1-.506.277h0a.123.123,0,0,1-.152-.08,2.129,2.129,0,0,0-1.35-1.392l-.015-.008a.407.407,0,0,0-.3-.021.379.379,0,0,0-.226.19l-.006.013a.4.4,0,0,0,.176.529c.584.3,1.016.525,1.009,1.257a1.23,1.23,0,0,1-.184.62,1.827,1.827,0,0,1-.5.527,1.85,1.85,0,0,1-.673.309,1.383,1.383,0,0,1-.677,0,1.234,1.234,0,0,1-.768-.645,3.376,3.376,0,0,1-.3-.914.093.093,0,0,1,0-.034.324.324,0,0,0-.273-.3.724.724,0,0,0-.214-.03.79.79,0,0,0-.214.03.328.328,0,0,0-.271.3.143.143,0,0,1,0,.03,2.838,2.838,0,0,1-.491,1.077,1.361,1.361,0,0,1-.793.52,1.382,1.382,0,0,1-.624-.021,1.724,1.724,0,0,1-.595-.3,1.593,1.593,0,0,1-.423-.493,1.226,1.226,0,0,1-.154-.582c0-.77.465-1.028,1.081-1.343a.4.4,0,0,0-.355-.711l-.006,0a2.268,2.268,0,0,0-1.42,1.447.125.125,0,0,1-.123.091,1.3,1.3,0,0,1-.218-.025,1.422,1.422,0,0,1-.212-.059,2.133,2.133,0,0,1-.5-.256,2.327,2.327,0,0,1-.438-.394,2.236,2.236,0,0,1-.341-.525,2.046,2.046,0,0,1-.173-.573v0a1.86,1.86,0,0,1-.008-.461,2,2,0,0,1,.1-.455l0-.006a.414.414,0,0,0,0-.258l0,0a.413.413,0,0,0-.159-.212l0,0a2.606,2.606,0,0,1-.366-.328,2.4,2.4,0,0,1-.288-.377,2.081,2.081,0,0,1-.224-.5,1.8,1.8,0,0,1-.072-.52,1.7,1.7,0,0,1,.1-.544,2,2,0,0,1,.273-.51,2.564,2.564,0,0,1,.383-.415,3.534,3.534,0,0,1,.5-.368.409.409,0,0,0,.154-.169l0-.006a.4.4,0,0,0,.036-.226.1.1,0,0,1,0-.025v0c-.011-.074-.017-.148-.021-.22s0-.157,0-.233a2.5,2.5,0,0,1,.15-.772,2.363,2.363,0,0,1,.381-.671,1.99,1.99,0,0,1,.432-.4,1.555,1.555,0,0,1,.484-.22h0a.123.123,0,0,1,.152.08,2.03,2.03,0,0,0,.611.969l.013.011a.388.388,0,0,0,.279.1.384.384,0,0,0,.269-.123l.006-.008a.388.388,0,0,0,.1-.279A.4.4,0,0,0,9.4,8.583a1.186,1.186,0,0,1-.387-.618,1.173,1.173,0,0,1,.013-.776,1.4,1.4,0,0,1,.271-.449A1.668,1.668,0,0,1,9.709,6.4l.006,0a1.633,1.633,0,0,1,.514-.195,1.336,1.336,0,0,1,.518,0,1.322,1.322,0,0,1,.688.4,2.311,2.311,0,0,1,.476.81l0,0a.429.429,0,0,0,.358.25.968.968,0,0,0,.235.015h0a.892.892,0,0,0,.228-.042.354.354,0,0,0,.25-.2V7.39a1.125,1.125,0,0,1,.347-.719,1.6,1.6,0,0,1,.762-.468,1.349,1.349,0,0,1,.47-.011,1.6,1.6,0,0,1,.465.15l.013,0a1.735,1.735,0,0,1,.408.288,1.573,1.573,0,0,1,.3.385,1.193,1.193,0,0,1,.138.745.987.987,0,0,1-.239.618l0,0a.393.393,0,0,0-.091.288.388.388,0,0,0,.131.26l.013.011A.394.394,0,0,0,16.24,8.9l.011-.015a1.744,1.744,0,0,0,.362-.724Zm4.646,10.354a.846.846,0,0,1,0-.643.809.809,0,0,1,.178-.264l0-.006a.76.76,0,0,1,.144-.114.88.88,0,0,1,.089-.049V16.1H20.032c0-.087,0-.173,0-.262a.134.134,0,0,1,.059-.125,4.629,4.629,0,0,0,.463-.362h1.494a.376.376,0,0,1,.374.374V17.45a.71.71,0,0,1,.076.044.819.819,0,0,1,.125.1l.006.006a.834.834,0,0,1,.182.273.854.854,0,0,1,.063.322.837.837,0,0,1-.061.315l0,.006a.857.857,0,0,1-.182.273.834.834,0,0,1-.273.182.854.854,0,0,1-.322.063.871.871,0,0,1-.322-.063.834.834,0,0,1-.273-.182.933.933,0,0,1-.18-.277Zm2.378-4.284H21.4c.038-.083.072-.165.1-.25a2.661,2.661,0,0,0,.127-.5h2c.015-.028.03-.055.047-.083a.785.785,0,0,1,.11-.138.823.823,0,0,1,.273-.182.854.854,0,0,1,.322-.063.837.837,0,0,1,.315.061l.006,0a.857.857,0,0,1,.273.182.834.834,0,0,1,.182.273.854.854,0,0,1,.063.322.871.871,0,0,1-.063.322.836.836,0,0,1-.455.455.854.854,0,0,1-.322.063.837.837,0,0,1-.315-.061l-.006,0a.857.857,0,0,1-.273-.182.826.826,0,0,1-.108-.133l0-.006c-.015-.025-.03-.053-.044-.08Zm.711-2.048H21.54a3.293,3.293,0,0,0-.3-.688l0-.006-.032-.055h2.772V8.99c-.021-.013-.042-.025-.063-.04a.86.86,0,0,1-.116-.1.834.834,0,0,1-.182-.273.842.842,0,0,1,.182-.916.834.834,0,0,1,.273-.182.854.854,0,0,1,.322-.063.871.871,0,0,1,.322.063.836.836,0,0,1,.455.455.854.854,0,0,1,.063.322.837.837,0,0,1-.061.315l0,.006a.857.857,0,0,1-.182.273.85.85,0,0,1-.26.178v2.776a.379.379,0,0,1-.377.377Zm-2.934-1.807h-.956a3.132,3.132,0,0,0,.047-.419c0-.112,0-.222,0-.33h.537v-1.1a.674.674,0,0,1-.085-.049.8.8,0,0,1-.142-.114h0a.834.834,0,0,1-.182-.273.852.852,0,0,1-.063-.319.84.84,0,0,1,.239-.588l.006-.006a.834.834,0,0,1,.273-.182.846.846,0,0,1,.643,0,.841.841,0,0,1,.267.178l.006,0a.824.824,0,0,1,.18.267l0,.006a.846.846,0,0,1,0,.643.872.872,0,0,1-.176.267L22,8.361a.877.877,0,0,1-.135.11.572.572,0,0,1-.078.044V10a.373.373,0,0,1-.11.264.376.376,0,0,1-.264.11ZM6.586,3.971a.846.846,0,0,0,.643,0,.809.809,0,0,0,.264-.178l.006,0a.76.76,0,0,0,.114-.144.88.88,0,0,0,.049-.089H9V4.71a2.781,2.781,0,0,1,.749-.269V3.182a.376.376,0,0,0-.374-.374H7.65a.71.71,0,0,0-.044-.076.819.819,0,0,0-.1-.125L7.5,2.6a.834.834,0,0,0-.273-.182A.854.854,0,0,0,6.9,2.355a.829.829,0,0,0-.315.061l-.006,0a.857.857,0,0,0-.273.182.834.834,0,0,0-.182.273.854.854,0,0,0-.063.322.871.871,0,0,0,.063.322.834.834,0,0,0,.182.273.926.926,0,0,0,.277.182Zm4.286-2.378v2.89a2.325,2.325,0,0,1,.721.351l.025.019c0-.006,0-.013,0-.019V1.593c.028-.015.055-.03.083-.047a.785.785,0,0,0,.138-.11.839.839,0,0,0,.245-.595.837.837,0,0,0-.061-.315l0-.006a.857.857,0,0,0-.182-.273.834.834,0,0,0-.273-.182A.854.854,0,0,0,11.247,0a.871.871,0,0,0-.322.063.836.836,0,0,0-.455.455.854.854,0,0,0-.063.322.837.837,0,0,0,.061.315l0,.006a.857.857,0,0,0,.182.273.826.826,0,0,0,.133.108l0,0c.028.017.053.032.083.047ZM12.919.882V5.109a2.562,2.562,0,0,1,.319-.275,2.243,2.243,0,0,1,.429-.245V1.255h2.444c.013.021.025.042.04.063a.86.86,0,0,0,.1.116.834.834,0,0,0,.273.182.854.854,0,0,0,.322.063.863.863,0,0,0,.322-.063.836.836,0,0,0,.455-.455A.854.854,0,0,0,17.683.84.871.871,0,0,0,17.62.518a.834.834,0,0,0-.182-.273.9.9,0,0,0-.277-.182A.852.852,0,0,0,16.841,0a.837.837,0,0,0-.315.061l-.006,0a.857.857,0,0,0-.273.182.85.85,0,0,0-.178.26H13.293a.373.373,0,0,0-.264.11.381.381,0,0,0-.11.267Zm1.807,2.934V4.4a2.128,2.128,0,0,1,.231.023,2.551,2.551,0,0,1,.518.131V4.193h1.1a.674.674,0,0,0,.049.085.8.8,0,0,0,.114.142h0a.834.834,0,0,0,.273.182.852.852,0,0,0,.319.063.84.84,0,0,0,.588-.239l.006-.006a.834.834,0,0,0,.182-.273.846.846,0,0,0,0-.643.841.841,0,0,0-.178-.267l0-.006a.824.824,0,0,0-.267-.18l-.006,0a.846.846,0,0,0-.643,0,.872.872,0,0,0-.267.176l-.006.006a.877.877,0,0,0-.11.135.573.573,0,0,0-.044.078H15.1a.373.373,0,0,0-.264.11.364.364,0,0,0-.11.262ZM3.971,7.447a.846.846,0,0,1,0,.643.809.809,0,0,1-.178.264l0,.006a.76.76,0,0,1-.144.114.88.88,0,0,1-.089.049V9.859H4.942v.066c0,.051,0,.1,0,.159a.138.138,0,0,1-.057.123,4.827,4.827,0,0,0-.493.4H3.186a.376.376,0,0,1-.374-.374V8.512a.71.71,0,0,1-.076-.044.819.819,0,0,1-.125-.1L2.6,8.359a.834.834,0,0,1-.182-.273.854.854,0,0,1-.063-.322.837.837,0,0,1,.061-.315l0-.006A.857.857,0,0,1,2.6,7.17a.834.834,0,0,1,.273-.182A.854.854,0,0,1,3.2,6.925a.871.871,0,0,1,.322.063.834.834,0,0,1,.273.182.971.971,0,0,1,.178.277ZM1.593,11.732H3.582c-.034.076-.063.154-.091.231a2.828,2.828,0,0,0-.127.516H1.593c-.015.028-.03.055-.047.083a.785.785,0,0,1-.11.138.823.823,0,0,1-.273.182.854.854,0,0,1-.322.063.837.837,0,0,1-.315-.061l-.006,0A.857.857,0,0,1,.248,12.7a.834.834,0,0,1-.182-.273A.854.854,0,0,1,0,12.1a.871.871,0,0,1,.063-.322.836.836,0,0,1,.455-.455.854.854,0,0,1,.322-.063.837.837,0,0,1,.315.061l.006,0a.857.857,0,0,1,.273.182.826.826,0,0,1,.108.133l0,.006.044.083ZM.882,13.78H3.47a3.162,3.162,0,0,0,.345.738v0l0,.008H1.255v2.444c.021.013.042.025.063.04a.86.86,0,0,1,.116.1.834.834,0,0,1,.182.273.854.854,0,0,1,.063.322.863.863,0,0,1-.063.322.857.857,0,0,1-.182.273.834.834,0,0,1-.273.182.854.854,0,0,1-.322.063.871.871,0,0,1-.322-.063A.834.834,0,0,1,.245,18.3a.953.953,0,0,1-.182-.277A.854.854,0,0,1,0,17.7a.837.837,0,0,1,.061-.315l0-.006a.857.857,0,0,1,.182-.273.85.85,0,0,1,.26-.178V14.152a.373.373,0,0,1,.11-.264.389.389,0,0,1,.267-.108Zm2.934,1.807h.7a3.092,3.092,0,0,0-.04.413,2.957,2.957,0,0,0,.006.336h-.29v1.1a.674.674,0,0,1,.085.049.8.8,0,0,1,.142.114h0a.834.834,0,0,1,.182.273.846.846,0,0,1,0,.643.872.872,0,0,1-.176.267l-.006.006a.834.834,0,0,1-.273.182.846.846,0,0,1-.643,0,.841.841,0,0,1-.267-.178l-.006,0a.824.824,0,0,1-.18-.267l0-.006a.846.846,0,0,1,0-.643.872.872,0,0,1,.176-.267l.006-.006a.877.877,0,0,1,.135-.11.572.572,0,0,1,.078-.044V15.963a.373.373,0,0,1,.11-.264.358.358,0,0,1,.264-.112ZM13.97,24.4v-2.96a2.184,2.184,0,0,1-.743-.4l0,0v3.37c-.028.015-.055.03-.083.047a.785.785,0,0,0-.138.11.839.839,0,0,0-.245.595.837.837,0,0,0,.061.315l0,.006a.857.857,0,0,0,.182.273.834.834,0,0,0,.273.182A.854.854,0,0,0,13.6,26a.871.871,0,0,0,.322-.063.836.836,0,0,0,.455-.455.854.854,0,0,0,.063-.322.837.837,0,0,0-.061-.315l0-.006a.857.857,0,0,0-.182-.273.826.826,0,0,0-.133-.108l-.006,0c-.028-.017-.055-.032-.083-.047Zm-2.048.711V20.85a2.521,2.521,0,0,1-.279.245,2.319,2.319,0,0,1-.47.277v3.372H8.729c-.013-.021-.025-.042-.04-.063a.86.86,0,0,0-.1-.116.834.834,0,0,0-.273-.182.842.842,0,0,0-.916.182.834.834,0,0,0-.182.273.854.854,0,0,0-.063.322.871.871,0,0,0,.063.322.836.836,0,0,0,.455.455A.854.854,0,0,0,8,26a.837.837,0,0,0,.315-.061l.006,0a.857.857,0,0,0,.273-.182.85.85,0,0,0,.178-.26h2.776a.373.373,0,0,0,.264-.11.383.383,0,0,0,.112-.269Zm-1.807-2.934v-.616a2.572,2.572,0,0,1-.491-.074c-.087-.021-.173-.049-.258-.078v.4h-1.1a.674.674,0,0,0-.049-.085.8.8,0,0,0-.114-.142h0a.834.834,0,0,0-.273-.182.852.852,0,0,0-.319-.063.84.84,0,0,0-.588.239l-.006,0a.834.834,0,0,0-.182.273.846.846,0,0,0,0,.643.841.841,0,0,0,.178.267l0,.006a.824.824,0,0,0,.267.18l.006,0a.854.854,0,0,0,.322.063.84.84,0,0,0,.588-.239l.006-.006a.877.877,0,0,0,.11-.135.572.572,0,0,0,.044-.078H9.741a.376.376,0,0,0,.374-.374Z" transform="translate(4)" fill="#fff"/>
      </g>
    </g>
    <g id="Main-Text" transform="translate(745.268 -693.279)">
      <g id="Group_51" data-name="Group 51">
        <g id="Group_50" data-name="Group 50">
          <g id="Group_49" data-name="Group 49">
            <g id="Subtraction_23" data-name="Subtraction 23">
              <g id="Group_47" data-name="Group 47">
                <path id="Path_518" data-name="Path 518" d="M558.649,1242.085c-1.423-3.175-3.48-7.21-6.118-11.994-4.4-7.989-9.019-15.494-9.213-15.81h-7.072c-.048.078-4.846,7.855-9.4,16.107-2.672,4.841-4.736,8.89-6.133,12.032-1.746,3.933-2.45,6.446-2.089,7.481.205.6,1.076,1.151,2.59,1.643a34.054,34.054,0,0,0,5.7,1.193,2.921,2.921,0,0,1-.667-1.916,4.351,4.351,0,0,1,.909-2.49l7.655-11.978.034-.059a2.414,2.414,0,0,1,.138-.2.248.248,0,0,0,.034-.052.124.124,0,0,0,0-.047c0-.027-.007-.069-.007-.142v-5.021a2.29,2.29,0,0,1,.785-4.441h7.959a2.288,2.288,0,0,1,.694,4.469v4.809a2.574,2.574,0,0,0,0,.353c.008.028.088.15.261.417l.015.023,7.711,11.858.006.008a.417.417,0,0,1,.036.057,4.96,4.96,0,0,1,.821,2.676,3.134,3.134,0,0,1-.361,1.434,2.887,2.887,0,0,1-.348.507l0,0a29.393,29.393,0,0,0,5.848-1.2c1.539-.538,2.391-1.176,2.532-1.893C561.2,1248.683,560.424,1246.054,558.649,1242.085ZM539.27,1226.07a.988.988,0,1,1,.988-.988A.987.987,0,0,1,539.27,1226.07Zm-.737-3.893a2.007,2.007,0,1,1,2.007-2.007A2.006,2.006,0,0,1,538.533,1222.177Zm3.591,2.905a1.583,1.583,0,0,1,0-3.166h0a1.583,1.583,0,0,1,0,3.167Z" fill="#013b4c"/>
              </g>
            </g>
            <g id="Path_464" data-name="Path 464">
              <g id="Group_48" data-name="Group 48">
                <line id="Line_3" data-name="Line 3" x2="22.93" transform="translate(529.516 1238.819)" fill="none" stroke="#013b4c" stroke-width="5"/>
              </g>
            </g>
          </g>
        </g>
      </g>
      <path id="Path_2" data-name="Path 2" d="M421.906,1226.7a2.952,2.952,0,1,1-2.954,2.952,2.953,2.953,0,0,1,2.954-2.952h0Zm-2.148-10.956a2.3,2.3,0,1,0-2.373,3.223l1.363,2.689a12.815,12.815,0,0,0-3.431,2.449c-.076.076-.149.149-.222.225l-3.271-1.742a3.113,3.113,0,1,0-1.162,2.148l2.908,1.547a12.655,12.655,0,0,0-1.846,4.966l-2.38.034a2.3,2.3,0,1,0,.086,2.442l2.172-.031a12.722,12.722,0,0,0,.482,2.951l-5.9,3.19a2.3,2.3,0,1,0,1.461,1.994l5.35-2.893a12.814,12.814,0,0,0,2.326,3.191c.069.07.142.142.215.211l-2.653,3.755a3.127,3.127,0,1,0,1.981,1.423l2.591-3.664a12.643,12.643,0,0,0,5.072,1.884l-.441,3.556a2.475,2.475,0,1,0,2.452.139l.444-3.588a12.685,12.685,0,0,0,5.752-1.707l1,1.415,1.387,1.963a3.121,3.121,0,1,0,1.981-1.422l-1.381-1.954-1.01-1.421q.322-.279.624-.583a12.724,12.724,0,0,0,2.155-2.861l5.648,2a2.3,2.3,0,1,0,.78-2.326l-5.457-1.928a12.8,12.8,0,0,0,.107-7.437l3.037-1.485a2.486,2.486,0,1,0-.93-2.276l-3.015,1.471a12.776,12.776,0,0,0-1.908-2.748l4.208-4.405a3.125,3.125,0,1,0-1.78-1.682l-4.236,4.444a12.686,12.686,0,0,0-4.17-2.053l.372-3.126a2.306,2.306,0,1,0-2.419-.438l-.372,3.129q-.508-.042-1.023-.042a12.9,12.9,0,0,0-3.272.424l-1.463-2.877a2.281,2.281,0,0,0,.16-2.172Zm11.755,10.189a10.159,10.159,0,1,0,2.977,7.181A10.159,10.159,0,0,0,431.513,1225.933Zm-1.985,4.08a1.694,1.694,0,1,1-1.693,1.693h0A1.693,1.693,0,0,1,429.528,1230.013Zm-5.235,4.771a2.952,2.952,0,1,1-2.952,2.952,2.952,2.952,0,0,1,2.952-2.952Z" fill="#013b4c" fill-rule="evenodd"/>
      <g id="Group_52" data-name="Group 52" style="isolation: isolate">
        <path id="Path_519" data-name="Path 519" d="M489.187,1215.654H497.8v30.2h18.661v7.018H489.187Z" fill="#013b4c"/>
      </g>
      <g id="Group_53" data-name="Group 53" style="isolation: isolate">
        <path id="Path_520" data-name="Path 520" d="M472.7,1244.9H455.418l-3.3,7.975H443.3l16.588-37.216h8.507l16.641,37.216h-9.038Zm-2.711-6.54-5.9-14.248-5.9,14.248Z" fill="#013b4c"/>
      </g>
      <g id="Group_54" data-name="Group 54" style="isolation: isolate">
        <path id="Path_521" data-name="Path 521" d="M398.513,1236.894a9.312,9.312,0,0,1,1.807,5.821,8.6,8.6,0,0,1-3.8,7.523q-3.8,2.631-11.085,2.632H366.187v-37.216h18.184q6.8,0,10.446,2.606a8.244,8.244,0,0,1,3.642,7.07,8.943,8.943,0,0,1-4.944,8.188A9.811,9.811,0,0,1,398.513,1236.894Zm-23.765-14.753v8.771h8.559a8.635,8.635,0,0,0,4.838-1.116,3.725,3.725,0,0,0,1.648-3.3,3.661,3.661,0,0,0-1.648-3.27,8.815,8.815,0,0,0-4.838-1.089Zm15.178,23.127a3.825,3.825,0,0,0,1.728-3.456q0-4.625-6.858-4.626H374.748v9.2H384.8A9.549,9.549,0,0,0,389.926,1245.268Z" fill="#013b4c"/>
      </g>
      <g id="Group_55" data-name="Group 55" style="isolation: isolate">
        <path id="Path_522" data-name="Path 522" d="M596.513,1235.894a9.312,9.312,0,0,1,1.807,5.821,8.6,8.6,0,0,1-3.8,7.523q-3.8,2.631-11.085,2.632H564.187v-37.216h18.184q6.8,0,10.446,2.606a8.244,8.244,0,0,1,3.642,7.07,8.943,8.943,0,0,1-4.944,8.188A9.811,9.811,0,0,1,596.513,1235.894Zm-23.765-14.753v8.771h8.559a8.635,8.635,0,0,0,4.838-1.116,3.725,3.725,0,0,0,1.648-3.3,3.661,3.661,0,0,0-1.648-3.27,8.815,8.815,0,0,0-4.838-1.089Zm15.178,23.127a3.825,3.825,0,0,0,1.728-3.456q0-4.625-6.858-4.626H572.748v9.2H582.8A9.549,9.549,0,0,0,587.926,1244.268Z" fill="#013b4c"/>
      </g>
      <g id="Group_56" data-name="Group 56" style="isolation: isolate">
        <path id="Path_523" data-name="Path 523" d="M351.054,1252.87,351,1230.541l-10.952,18.4h-3.881l-10.9-17.916v21.85h-8.082v-37.216h7.125l13.929,23.127,13.717-23.127h7.071l.107,37.216Z" fill="#013b4c"/>
      </g>
    </g>
  </g>
</svg>
