<svg xmlns="http://www.w3.org/2000/svg" width="230.13" height="216.186" viewBox="0 0 230.13 216.186">
  <g id="logo-concept-3-v2" transform="translate(42.231)">
    <path id="Path_467" data-name="Path 467" d="M3417.512,1270.769c-3.6-2.908,1.138-4.932,1.138-12.266s.379-7.84-1.138-17.071-2.656-11.634-6.07-21.75-5.69-20.359-5.69-20.359-5.295-19.774,0-36.608,12.248-25.715,20.3-32.625a56.727,56.727,0,0,1,15.31-9.619s10.5-4.7,15.825-5.419c9.646-1.3,16.493-2.4,30.458,1.626s17.417,7.471,25.688,14.416a54.6,54.6,0,0,1,7.913,8.78c6.069,8.238,9.953,17.469,10.585,24.676s-1.138,11.507,0,15.681,3.826,6.07,7.461,10.243,5.058,4.173,7.208,6.449a8.362,8.362,0,0,1,1.517,10.116c-2.182,4.457-7.967,6.828-8.725,8.22s1.06,1.655,2.4,3.667c.726,1.08,1.95,2.2,1.644,3.92-.74,4.154-7.005,9.029-7.005,9.029a9.756,9.756,0,0,1,2.959,2.58,4.71,4.71,0,0,1,.834,3.945c-.36,2.011-.74,2.124-2.276,4.1s-3.737,1.176-4.7,3.035,0,3.718,0,7.132v6.525s-1.518,4.856-7.891,5.614-10.053.152-18.968,2.049-11.192,2.75-18.209,6.07-5.976,3.415-9.863,7.208-3.415,5.311-5.691,7.967.854,4.331-12.9,0S3421.116,1273.677,3417.512,1270.769Z" transform="translate(-3403.398 -1113.859)" fill="#fff"/>
    <path id="Path_468" data-name="Path 468" d="M3417.045,1263.327c-1.377-1.111-2.669-2.708-2.24-4.233.433-1.611,2.24-4.332,2.24-8.864a123.215,123.215,0,0,0-1.013-17.319c-.818-7.364-5.136-19.683-7.5-29.32-.5-1.467,46.912,12,65.458,0s75.419-7.808,73.555-4c-2.182,4.458-7.967,6.828-8.725,8.22s1.06,1.655,2.4,3.667c.726,1.08,1.95,2.2,1.644,3.92-.74,4.154-7.005,9.029-7.005,9.029a9.756,9.756,0,0,1,2.959,2.58,4.71,4.71,0,0,1,.834,3.945c-.36,2.011-.74,2.125-2.276,4.1s-3.737,1.176-4.7,3.035,0,3.718,0,7.132v6.525s-1.518,4.856-7.891,5.615-10.053.152-18.968,2.049-11.192,2.75-18.209,6.07-5.976,3.414-9.863,7.208-3.415,5.311-5.691,7.967.854,4.331-12.9,0S3420.649,1266.236,3417.045,1263.327Z" transform="translate(-3402.991 -1106.418)" fill="#fd5e7b"/>
    <g id="My-Therm" transform="translate(53.553 53.068)">
      <path id="therm-fluid" d="M35.165,105.885a11.575,11.575,0,0,1-2.533-22.872V55.4h5.794V83.238a11.554,11.554,0,0,1-3.261,22.647Z" transform="translate(-17.758 -31.677)" fill="#fd5e7b"/>
      <path id="thermometer-skin" d="M45.977,67.413a17.376,17.376,0,1,1-34.752,0A17.2,17.2,0,0,1,20.09,52.162V13.475A8.845,8.845,0,0,1,28.962,4.79a8.686,8.686,0,0,1,8.688,8.685V52.6a17.348,17.348,0,0,1,8.327,14.813ZM34.756,54.353V13.475a5.791,5.791,0,1,0-11.582,0V54.007a14.51,14.51,0,1,0,11.582.346Z" transform="translate(-11.225 -4.79)"/>
      <path id="therm-bars" d="M74.18,62.306V59.6h9.055v2.711Zm0-8.685h9.055v2.894H74.18Zm0-5.794h9.055v2.9H74.18Zm0-5.977h9.055v2.894L74.18,44.56Zm0-6.161h9.055v3.08H74.18Zm0-5.791h9.055v2.9H74.18Z" transform="translate(-44.672 -18.13)"/>
    </g>
    <g id="Group_24" data-name="Group 24" transform="translate(35.265 21.331)">
      <path id="Path_338" data-name="Path 338" d="M3685.718,941s-5.254,7.713-3.21,10.956,7.246,2.09,8.521-1.153S3685.718,941,3685.718,941Z" transform="translate(-3682.036 -941)" fill="#fd5e7b"/>
      <ellipse id="Ellipse_40" data-name="Ellipse 40" cx="1.091" cy="1.636" rx="1.091" ry="1.636" transform="translate(2.066 6.02)" fill="#fff"/>
    </g>
    <g id="Group_25" data-name="Group 25" transform="translate(99.91 34.218)">
      <path id="Path_338-2" data-name="Path 338" d="M3685.718,941s-5.254,7.713-3.21,10.956,7.246,2.09,8.521-1.153S3685.718,941,3685.718,941Z" transform="translate(-3682.036 -941)" fill="#fd5e7b"/>
      <ellipse id="Ellipse_40-2" data-name="Ellipse 40" cx="1.091" cy="1.636" rx="1.091" ry="1.636" transform="translate(2.066 6.02)" fill="#fff"/>
    </g>
    <g id="Main-Text" transform="translate(-359.418 -1030.427)">
      <g id="Group_51" data-name="Group 51" transform="translate(482.004 1214.099)">
        <g id="Group_50" data-name="Group 50">
          <g id="Group_49" data-name="Group 49">
            <g id="Subtraction_23" data-name="Subtraction 23">
              <g id="Group_47" data-name="Group 47">
                <path id="Path_518" data-name="Path 518" d="M551.371,1237.041c-1.165-2.6-2.849-5.9-5.008-9.818-3.6-6.54-7.383-12.683-7.542-12.942h-5.789c-.039.064-3.967,6.43-7.7,13.185-2.187,3.963-3.877,7.277-5.02,9.849-1.429,3.219-2.005,5.277-1.71,6.124.168.489.881.942,2.12,1.345a27.888,27.888,0,0,0,4.663.977,2.392,2.392,0,0,1-.546-1.568,3.561,3.561,0,0,1,.744-2.038l6.266-9.805.028-.048a1.96,1.96,0,0,1,.113-.165.2.2,0,0,0,.028-.043.1.1,0,0,0,0-.038c0-.022-.006-.057-.006-.116v-4.11a1.875,1.875,0,0,1,.643-3.635h6.515a1.873,1.873,0,0,1,.568,3.658v3.937a2.089,2.089,0,0,0,0,.289c.007.023.072.123.214.341l.012.019,6.312,9.707,0,.007a.347.347,0,0,1,.029.047,4.061,4.061,0,0,1,.672,2.191,2.564,2.564,0,0,1-.3,1.174,2.363,2.363,0,0,1-.285.415l0,0a24.068,24.068,0,0,0,4.787-.986c1.26-.44,1.957-.963,2.073-1.55C553.462,1242.442,552.824,1240.29,551.371,1237.041Zm-15.863-13.11a.809.809,0,1,1,.809-.809A.808.808,0,0,1,535.508,1223.931Zm-.6-3.187a1.643,1.643,0,1,1,1.643-1.643A1.642,1.642,0,0,1,534.9,1220.745Zm2.94,2.378a1.3,1.3,0,0,1,0-2.592h0a1.3,1.3,0,0,1,0,2.593Z" transform="translate(-518.531 -1214.281)" fill="#013b4c"/>
              </g>
            </g>
            <g id="Path_464" data-name="Path 464" transform="translate(8.992 20.086)">
              <g id="Group_48" data-name="Group 48">
                <line id="Line_3" data-name="Line 3" x2="18.77" fill="none" stroke="#013b4c" stroke-width="5"/>
              </g>
            </g>
          </g>
        </g>
      </g>
      <path id="Path_2" data-name="Path 2" d="M418.486,1224.265a2.416,2.416,0,1,1-2.418,2.416,2.417,2.417,0,0,1,2.418-2.416h0Zm-1.758-8.968a1.883,1.883,0,1,0-1.943,2.638l1.116,2.2a10.491,10.491,0,0,0-2.809,2c-.062.062-.122.122-.182.184l-2.678-1.426a2.548,2.548,0,1,0-.951,1.758l2.38,1.266a10.36,10.36,0,0,0-1.511,4.065l-1.948.028a1.883,1.883,0,1,0,.07,2l1.778-.025a10.413,10.413,0,0,0,.395,2.416l-4.827,2.611a1.879,1.879,0,1,0,1.2,1.632l4.379-2.368a10.49,10.49,0,0,0,1.9,2.612c.056.057.116.116.176.173l-2.172,3.074a2.56,2.56,0,1,0,1.622,1.165l2.121-3a10.35,10.35,0,0,0,4.152,1.542l-.361,2.911a2.026,2.026,0,1,0,2.007.114l.363-2.937a10.385,10.385,0,0,0,4.708-1.4l.818,1.158,1.135,1.607a2.555,2.555,0,1,0,1.622-1.164l-1.13-1.6-.827-1.163q.264-.228.511-.477a10.416,10.416,0,0,0,1.764-2.342l4.623,1.636a1.879,1.879,0,1,0,.638-1.9l-4.467-1.578a10.479,10.479,0,0,0,.088-6.088l2.486-1.216a2.035,2.035,0,1,0-.761-1.863l-2.468,1.2a10.458,10.458,0,0,0-1.562-2.25l3.445-3.606a2.558,2.558,0,1,0-1.457-1.377l-3.468,3.638a10.384,10.384,0,0,0-3.414-1.681l.3-2.559a1.888,1.888,0,1,0-1.98-.359l-.3,2.561q-.416-.034-.837-.034a10.557,10.557,0,0,0-2.678.347l-1.2-2.355a1.867,1.867,0,0,0,.131-1.778Zm9.622,8.341a8.316,8.316,0,1,0,2.437,5.878A8.316,8.316,0,0,0,426.35,1223.637Zm-1.625,3.34a1.386,1.386,0,1,1-1.386,1.386h0A1.386,1.386,0,0,1,424.725,1226.977Zm-4.285,3.906a2.417,2.417,0,1,1-2.417,2.416,2.417,2.417,0,0,1,2.417-2.416Z" transform="translate(-15.578)" fill="#013b4c" fill-rule="evenodd"/>
      <g id="Group_52" data-name="Group 52" transform="translate(457.983 1215.223)" style="isolation: isolate">
        <path id="Path_519" data-name="Path 519" d="M489.187,1215.654h7.051v24.719h15.276v5.745H489.187Z" transform="translate(-489.187 -1215.654)" fill="#013b4c"/>
      </g>
      <g id="Group_53" data-name="Group 53" transform="translate(420.418 1215.223)" style="isolation: isolate">
        <path id="Path_520" data-name="Path 520" d="M467.363,1239.59H453.219l-2.7,6.528H443.3l13.579-30.464h6.964l13.622,30.464h-7.4Zm-2.219-5.354-4.831-11.663-4.83,11.663Z" transform="translate(-443.296 -1215.654)" fill="#013b4c"/>
      </g>
      <g id="Group_54" data-name="Group 54" transform="translate(357.298 1215.223)" style="isolation: isolate">
        <path id="Path_521" data-name="Path 521" d="M392.648,1233.041a7.623,7.623,0,0,1,1.479,4.765,7.041,7.041,0,0,1-3.111,6.158q-3.113,2.154-9.074,2.154H366.187v-30.464h14.885q5.57,0,8.551,2.133a6.749,6.749,0,0,1,2.981,5.787,7.32,7.32,0,0,1-4.047,6.7A8.032,8.032,0,0,1,392.648,1233.041Zm-19.454-12.077v7.18H380.2a7.068,7.068,0,0,0,3.96-.914,3.049,3.049,0,0,0,1.349-2.7,3,3,0,0,0-1.349-2.677,7.216,7.216,0,0,0-3.96-.891Zm12.424,18.931a3.131,3.131,0,0,0,1.415-2.829q0-3.786-5.614-3.787h-8.225v7.529h8.225A7.815,7.815,0,0,0,385.619,1239.9Z" transform="translate(-366.187 -1215.654)" fill="#013b4c"/>
      </g>
      <g id="Group_55" data-name="Group 55" transform="translate(519.377 1214.405)" style="isolation: isolate">
        <path id="Path_522" data-name="Path 522" d="M590.648,1232.041a7.623,7.623,0,0,1,1.479,4.765,7.041,7.041,0,0,1-3.111,6.158q-3.113,2.154-9.074,2.154H564.187v-30.464h14.885q5.57,0,8.551,2.133a6.749,6.749,0,0,1,2.981,5.787,7.32,7.32,0,0,1-4.047,6.7A8.031,8.031,0,0,1,590.648,1232.041Zm-19.454-12.077v7.18H578.2a7.07,7.07,0,0,0,3.96-.913,3.05,3.05,0,0,0,1.349-2.7,3,3,0,0,0-1.349-2.677,7.216,7.216,0,0,0-3.96-.891Zm12.424,18.931a3.131,3.131,0,0,0,1.414-2.829q0-3.786-5.614-3.787h-8.225v7.529h8.225A7.817,7.817,0,0,0,583.619,1238.9Z" transform="translate(-564.187 -1214.654)" fill="#013b4c"/>
      </g>
      <g id="Group_56" data-name="Group 56" transform="translate(317.187 1215.223)" style="isolation: isolate">
        <path id="Path_523" data-name="Path 523" d="M344.91,1246.118l-.043-18.278L335.9,1242.9h-3.177l-8.922-14.666v17.886h-6.616v-30.464h5.832l11.4,18.931,11.228-18.931h5.788l.088,30.464Z" transform="translate(-317.187 -1215.654)" fill="#013b4c"/>
      </g>
    </g>
  </g>
</svg>
