<svg xmlns="http://www.w3.org/2000/svg" width="358.333" height="347.561" viewBox="0 0 358.333 347.561">
  <g id="logo-concept-5" transform="translate(-852.333 -197.341)">
    <rect id="Rectangle_29" data-name="Rectangle 29" width="283" height="283" rx="22" transform="translate(890 197.341)" fill="#013b4c"/>
    <g id="therm-scope" transform="translate(944.55 238.743)">
      <g id="fever-temperature" transform="translate(81.159 0) rotate(47)">
        <path id="Path_29" data-name="Path 29" d="M78.86,58.47,28.321,7.931A13.5,13.5,0,0,0,18.409,4.1,14.959,14.959,0,0,0,8.159,8.4a13.984,13.984,0,0,0,0,19.7l5.784,5.783L19.833,28l2.9,2.9-5.89,5.89,7.8,7.8,3.239-3.239,2.9,2.9-3.239,3.239,7.634,7.634,5.89-5.89,2.9,2.9-5.89,5.89,7.8,7.8,3.239-3.239,2.9,2.9-3.239,3.239,7.634,7.634,5.89-5.89,2.9,2.9-5.864,5.864c4.653,4.235,5.979,4.511,8.844,5.116,1.255.267,2.776.587,4.912,1.237,6,1.833,12.679,8.96,17.911,14.557,1.237,1.317,2.385,2.545,3.532,3.7a5.732,5.732,0,0,0,5.739.632,8.2,8.2,0,0,0,2.767-1.949,8.307,8.307,0,0,0,1.8-2.874,5.262,5.262,0,0,0-.739-5.267c-1.05-1.05-2.216-2.153-3.515-3.372-5.57-5.232-13.3-12.51-14.85-17.858-.525-1.806-.827-3.257-1.094-4.547-.739-3.532-1.2-5.766-5.748-10.1l-.044-.044Zm13.771,31c4.11,3.7,7.7,7.034,7.939,7.273a2.707,2.707,0,0,1,0,3.817h0a2.707,2.707,0,0,1-3.817,0l-7.545-7.545c-.04-.04-1.462-2.819-3.262-7A29.639,29.639,0,0,1,92.632,89.467ZM31.222,5.031,81.761,55.579h0c5.437,5.187,6,7.91,6.9,12.19.258,1.246.552,2.643,1.014,4.244,1.237,4.271,8.5,11.1,13.729,16.016,1.441,1.361,2.74,2.58,3.621,3.461l-.009.009a1.065,1.065,0,0,1,.1.107,9.2,9.2,0,0,1,1.584,9.423,12.479,12.479,0,0,1-2.66,4.3,12.212,12.212,0,0,1-4.164,2.927,9.673,9.673,0,0,1-9.77-1.139,1.631,1.631,0,0,1-.391-.311c-1.014-1.014-2.3-2.385-3.684-3.862C83.114,97.691,76.841,91,71.911,89.5c-1.913-.587-3.354-.89-4.556-1.148-3.764-.792-5.419-1.148-11.389-6.673-.053-.044-.107-.089-.16-.142L5.259,30.994a18.087,18.087,0,0,1,0-25.5A19.106,19.106,0,0,1,18.329,0,17.614,17.614,0,0,1,31.222,5.031Z" transform="matrix(1, -0.017, 0.017, 1, 0, 1.908)" fill="#fff" fill-rule="evenodd"/>
        <path id="Path_222" data-name="Path 222" d="M60.413,61.575,0,0" transform="matrix(0.999, -0.035, 0.035, 0.999, 20.391, 22.082)" fill="none" stroke="#fd5e7b" stroke-linecap="round" stroke-width="2"/>
      </g>
      <path id="Icon_awesome-microscope" data-name="Icon awesome-microscope" d="M147.529,125.907h-.41A60.944,60.944,0,0,0,101.744,24.163V44.512a40.7,40.7,0,0,1,0,81.4H15.262A15.261,15.261,0,0,0,0,141.169a5.086,5.086,0,0,0,5.087,5.087H157.7a5.086,5.086,0,0,0,5.087-5.087A15.261,15.261,0,0,0,147.529,125.907ZM33.067,115.733H99.2a2.543,2.543,0,0,0,2.544-2.544V108.1a2.543,2.543,0,0,0-2.544-2.544H33.067a2.543,2.543,0,0,0-2.544,2.544v5.087A2.543,2.543,0,0,0,33.067,115.733Z" transform="translate(11.562 54.348)" fill="#fff"/>
    </g>
    <g id="Main-Text" transform="translate(535.146 -720.279)">
      <g id="Group_51" data-name="Group 51" transform="translate(573.821 1214.556)">
        <g id="Group_50" data-name="Group 50">
          <g id="Group_49" data-name="Group 49">
            <g id="Subtraction_23" data-name="Subtraction 23">
              <g id="Group_47" data-name="Group 47">
                <path id="Path_518" data-name="Path 518" d="M569.666,1249.72c-1.814-4.047-4.436-9.19-7.8-15.288-5.612-10.183-11.5-19.749-11.743-20.151h-9.014c-.061.1-6.177,10.012-11.983,20.53-3.406,6.17-6.036,11.331-7.817,15.336-2.225,5.013-3.123,8.216-2.663,9.535.261.761,1.371,1.467,3.3,2.094a43.409,43.409,0,0,0,7.26,1.521,3.724,3.724,0,0,1-.85-2.442,5.546,5.546,0,0,1,1.159-3.174l9.757-15.267.043-.075a3.073,3.073,0,0,1,.176-.257.319.319,0,0,0,.043-.066.159.159,0,0,0,0-.06c0-.035-.009-.088-.009-.181v-6.4a2.919,2.919,0,0,1,1-5.66h10.145a2.917,2.917,0,0,1,.885,5.7v6.13a3.281,3.281,0,0,0,0,.45c.01.036.112.191.333.531l.019.029,9.828,15.114.008.01a.54.54,0,0,1,.046.073,6.323,6.323,0,0,1,1.047,3.411,4,4,0,0,1-.46,1.828,3.679,3.679,0,0,1-.444.646l0-.005a37.455,37.455,0,0,0,7.454-1.536c1.962-.686,3.048-1.5,3.227-2.413C572.922,1258.13,571.928,1254.779,569.666,1249.72Zm-24.7-20.413a1.259,1.259,0,1,1,1.259-1.259A1.259,1.259,0,0,1,544.965,1229.307Zm-.939-4.962a2.557,2.557,0,1,1,2.558-2.558A2.557,2.557,0,0,1,544.026,1224.345Zm4.577,3.7a2.018,2.018,0,1,1,0-4.035h0a2.018,2.018,0,0,1,0,4.037Z" transform="translate(-518.531 -1214.281)" fill="#013b4c"/>
              </g>
            </g>
            <g id="Path_464" data-name="Path 464" transform="translate(14.001 31.276)">
              <g id="Group_48" data-name="Group 48">
                <line id="Line_3" data-name="Line 3" x2="29.226" fill="none" stroke="#013b4c" stroke-width="5"/>
              </g>
            </g>
          </g>
        </g>
      </g>
      <path id="Path_2" data-name="Path 2" d="M427.082,1230.385a3.763,3.763,0,1,1-3.765,3.763,3.764,3.764,0,0,1,3.765-3.763h0Zm-2.738-13.964a2.932,2.932,0,1,0-3.025,4.108l1.737,3.427a16.335,16.335,0,0,0-4.373,3.121c-.1.1-.19.19-.283.287l-4.169-2.22a3.968,3.968,0,1,0-1.481,2.738l3.707,1.972a16.131,16.131,0,0,0-2.353,6.33l-3.034.043a2.931,2.931,0,1,0,.11,3.113l2.768-.04a16.215,16.215,0,0,0,.614,3.761l-7.516,4.066a2.926,2.926,0,1,0,1.862,2.542l6.819-3.687a16.333,16.333,0,0,0,2.965,4.067c.088.089.181.181.274.269l-3.382,4.786a3.985,3.985,0,1,0,2.525,1.814l3.3-4.67a16.116,16.116,0,0,0,6.465,2.4l-.562,4.532a3.154,3.154,0,1,0,3.125.177l.566-4.573a16.168,16.168,0,0,0,7.332-2.176l1.273,1.8,1.768,2.5a3.978,3.978,0,1,0,2.525-1.812l-1.76-2.491-1.287-1.811q.411-.356.8-.743a16.22,16.22,0,0,0,2.747-3.647l7.2,2.547a2.927,2.927,0,1,0,.994-2.965l-6.956-2.457a16.318,16.318,0,0,0,.136-9.479l3.871-1.893a3.168,3.168,0,1,0-1.185-2.9l-3.843,1.875a16.283,16.283,0,0,0-2.432-3.5l5.364-5.615a3.984,3.984,0,1,0-2.269-2.144l-5.4,5.665a16.169,16.169,0,0,0-5.315-2.617l.474-3.984a2.939,2.939,0,1,0-3.083-.558l-.474,3.988q-.648-.053-1.3-.054a16.448,16.448,0,0,0-4.17.54l-1.865-3.667a2.907,2.907,0,0,0,.2-2.768Zm14.983,12.987a12.949,12.949,0,1,0,3.794,9.153A12.948,12.948,0,0,0,439.328,1229.408Zm-2.53,5.2a2.159,2.159,0,1,1-2.158,2.158h0A2.158,2.158,0,0,1,436.8,1234.608Zm-6.673,6.081a3.763,3.763,0,1,1-3.763,3.762,3.763,3.763,0,0,1,3.763-3.762Z" transform="translate(23.58 0)" fill="#013b4c" fill-rule="evenodd"/>
      <g id="Group_52" data-name="Group 52" transform="translate(536.419 1216.306)" style="isolation: isolate">
        <path id="Path_519" data-name="Path 519" d="M489.187,1215.654h10.979v38.49h23.785v8.945H489.187Z" transform="translate(-489.187 -1215.654)" fill="#013b4c"/>
      </g>
      <g id="Group_53" data-name="Group 53" transform="translate(477.926 1216.306)" style="isolation: isolate">
        <path id="Path_520" data-name="Path 520" d="M480.771,1252.925H458.747l-4.2,10.165H443.3l21.143-47.436h10.843l21.211,47.436h-11.52Zm-3.455-8.336-7.523-18.161-7.521,18.161Z" transform="translate(-443.296 -1215.654)" fill="#013b4c"/>
      </g>
      <g id="Group_54" data-name="Group 54" transform="translate(379.643 1216.306)" style="isolation: isolate">
        <path id="Path_521" data-name="Path 521" d="M407.39,1242.727a11.869,11.869,0,0,1,2.3,7.419,10.964,10.964,0,0,1-4.845,9.589q-4.847,3.353-14.129,3.355H366.187v-47.436h23.177q8.672,0,13.315,3.322a10.508,10.508,0,0,1,4.642,9.011,11.4,11.4,0,0,1-6.3,10.436A12.505,12.505,0,0,1,407.39,1242.727Zm-30.291-18.8v11.18h10.909a11.007,11.007,0,0,0,6.167-1.422,4.748,4.748,0,0,0,2.1-4.2,4.667,4.667,0,0,0-2.1-4.168,11.236,11.236,0,0,0-6.167-1.388Zm19.346,29.478a4.876,4.876,0,0,0,2.2-4.405q0-5.894-8.741-5.9H377.1v11.724h12.807Q394.24,1254.823,396.445,1253.4Z" transform="translate(-366.187 -1215.654)" fill="#013b4c"/>
      </g>
      <g id="Group_55" data-name="Group 55" transform="translate(632.014 1215.031)" style="isolation: isolate">
        <path id="Path_522" data-name="Path 522" d="M605.39,1241.727a11.869,11.869,0,0,1,2.3,7.419,10.964,10.964,0,0,1-4.845,9.589q-4.847,3.353-14.129,3.355H564.187v-47.436h23.177q8.672,0,13.315,3.322a10.508,10.508,0,0,1,4.642,9.011,11.4,11.4,0,0,1-6.3,10.436A12.5,12.5,0,0,1,605.39,1241.727Zm-30.291-18.8v11.18h10.909a11.006,11.006,0,0,0,6.167-1.422,4.748,4.748,0,0,0,2.1-4.2,4.667,4.667,0,0,0-2.1-4.168,11.234,11.234,0,0,0-6.167-1.388Zm19.346,29.478a4.875,4.875,0,0,0,2.2-4.4q0-5.894-8.741-5.9H575.1v11.724h12.807Q592.24,1253.823,594.445,1252.4Z" transform="translate(-564.187 -1214.654)" fill="#013b4c"/>
      </g>
      <g id="Group_56" data-name="Group 56" transform="translate(317.187 1216.306)" style="isolation: isolate">
        <path id="Path_523" data-name="Path 523" d="M360.354,1263.09l-.068-28.461-13.959,23.446H341.38l-13.892-22.836v27.85h-10.3v-47.436h9.082l17.754,29.478,17.484-29.478h9.013l.136,47.436Z" transform="translate(-317.187 -1215.654)" fill="#013b4c"/>
      </g>
    </g>
  </g>
</svg>
