<svg xmlns="http://www.w3.org/2000/svg" width="358.333" height="362.247" viewBox="0 0 358.333 362.247">
  <g id="logo-concept-2" transform="translate(-837.833 -165.656)">
    <rect id="Rectangle_29" data-name="Rectangle 29" width="300" height="300" rx="22" transform="translate(867 165.656)" fill="#013b4c"/>
    <g id="bulb-microscope" transform="translate(930.629 212.149)">
      <path id="Icon_awesome-microscope" data-name="Icon awesome-microscope" d="M156.223,131.9h-.434A64.536,64.536,0,0,0,107.74,24.163V45.711a43.1,43.1,0,0,1,0,86.192H16.161A16.161,16.161,0,0,0,0,148.064a5.386,5.386,0,0,0,5.387,5.387H167a5.386,5.386,0,0,0,5.387-5.387A16.161,16.161,0,0,0,156.223,131.9ZM35.015,121.129h70.031a2.693,2.693,0,0,0,2.693-2.693v-5.387a2.693,2.693,0,0,0-2.693-2.694H35.015a2.693,2.693,0,0,0-2.694,2.694v5.387A2.693,2.693,0,0,0,35.015,121.129Z" transform="translate(0 53.673)" fill="#fff"/>
      <g id="My-Therm" transform="translate(37.095 0)">
        <path id="therm-fluid" d="M46.051,153.326a22.452,22.452,0,0,1-4.914-44.363V55.4H52.376v54a22.41,22.41,0,0,1-6.325,43.928Z" transform="translate(-12.288 -9.388)" fill="#fd5e7b"/>
        <path id="thermometer-skin" d="M78.633,126.257a33.7,33.7,0,1,1-67.408,0,33.37,33.37,0,0,1,17.2-29.581V21.636A17.155,17.155,0,0,1,45.628,4.79,16.848,16.848,0,0,1,62.48,21.636V97.525a33.649,33.649,0,0,1,16.152,28.733ZM56.867,100.925V21.636a11.233,11.233,0,0,0-22.465,0v78.618a28.144,28.144,0,1,0,22.465.671Z" transform="translate(-11.225 -4.79)" fill="#fff"/>
      </g>
    </g>
    <g id="Main-Text" transform="translate(520.646 -737.279)">
      <g id="Group_51" data-name="Group 51" transform="translate(573.821 1214.556)">
        <g id="Group_50" data-name="Group 50">
          <g id="Group_49" data-name="Group 49">
            <g id="Subtraction_23" data-name="Subtraction 23">
              <g id="Group_47" data-name="Group 47">
                <path id="Path_518" data-name="Path 518" d="M569.666,1249.72c-1.814-4.047-4.436-9.19-7.8-15.288-5.612-10.183-11.5-19.749-11.743-20.151h-9.014c-.061.1-6.177,10.012-11.983,20.53-3.406,6.17-6.036,11.331-7.817,15.336-2.225,5.013-3.123,8.216-2.663,9.535.261.761,1.371,1.467,3.3,2.094a43.409,43.409,0,0,0,7.26,1.521,3.724,3.724,0,0,1-.85-2.442,5.546,5.546,0,0,1,1.159-3.174l9.757-15.267.043-.075a3.073,3.073,0,0,1,.176-.257.319.319,0,0,0,.043-.066.159.159,0,0,0,0-.06c0-.035-.009-.088-.009-.181v-6.4a2.919,2.919,0,0,1,1-5.66h10.145a2.917,2.917,0,0,1,.885,5.7v6.13a3.281,3.281,0,0,0,0,.45c.01.036.112.191.333.531l.019.029,9.828,15.114.008.01a.54.54,0,0,1,.046.073,6.323,6.323,0,0,1,1.047,3.411,4,4,0,0,1-.46,1.828,3.679,3.679,0,0,1-.444.646l0-.005a37.455,37.455,0,0,0,7.454-1.536c1.962-.686,3.048-1.5,3.227-2.413C572.922,1258.13,571.928,1254.779,569.666,1249.72Zm-24.7-20.413a1.259,1.259,0,1,1,1.259-1.259A1.259,1.259,0,0,1,544.965,1229.307Zm-.939-4.962a2.557,2.557,0,1,1,2.558-2.558A2.557,2.557,0,0,1,544.026,1224.345Zm4.577,3.7a2.018,2.018,0,1,1,0-4.035h0a2.018,2.018,0,0,1,0,4.037Z" transform="translate(-518.531 -1214.281)" fill="#013b4c"/>
              </g>
            </g>
            <g id="Path_464" data-name="Path 464" transform="translate(14.001 31.276)">
              <g id="Group_48" data-name="Group 48">
                <line id="Line_3" data-name="Line 3" x2="29.226" fill="none" stroke="#013b4c" stroke-width="5"/>
              </g>
            </g>
          </g>
        </g>
      </g>
      <path id="Path_2" data-name="Path 2" d="M427.082,1230.385a3.763,3.763,0,1,1-3.765,3.763,3.764,3.764,0,0,1,3.765-3.763h0Zm-2.738-13.964a2.932,2.932,0,1,0-3.025,4.108l1.737,3.427a16.335,16.335,0,0,0-4.373,3.121c-.1.1-.19.19-.283.287l-4.169-2.22a3.968,3.968,0,1,0-1.481,2.738l3.707,1.972a16.131,16.131,0,0,0-2.353,6.33l-3.034.043a2.931,2.931,0,1,0,.11,3.113l2.768-.04a16.215,16.215,0,0,0,.614,3.761l-7.516,4.066a2.926,2.926,0,1,0,1.862,2.542l6.819-3.687a16.333,16.333,0,0,0,2.965,4.067c.088.089.181.181.274.269l-3.382,4.786a3.985,3.985,0,1,0,2.525,1.814l3.3-4.67a16.116,16.116,0,0,0,6.465,2.4l-.562,4.532a3.154,3.154,0,1,0,3.125.177l.566-4.573a16.168,16.168,0,0,0,7.332-2.176l1.273,1.8,1.768,2.5a3.978,3.978,0,1,0,2.525-1.812l-1.76-2.491-1.287-1.811q.411-.356.8-.743a16.22,16.22,0,0,0,2.747-3.647l7.2,2.547a2.927,2.927,0,1,0,.994-2.965l-6.956-2.457a16.318,16.318,0,0,0,.136-9.479l3.871-1.893a3.168,3.168,0,1,0-1.185-2.9l-3.843,1.875a16.283,16.283,0,0,0-2.432-3.5l5.364-5.615a3.984,3.984,0,1,0-2.269-2.144l-5.4,5.665a16.169,16.169,0,0,0-5.315-2.617l.474-3.984a2.939,2.939,0,1,0-3.083-.558l-.474,3.988q-.648-.053-1.3-.054a16.448,16.448,0,0,0-4.17.54l-1.865-3.667a2.907,2.907,0,0,0,.2-2.768Zm14.983,12.987a12.949,12.949,0,1,0,3.794,9.153A12.948,12.948,0,0,0,439.328,1229.408Zm-2.53,5.2a2.159,2.159,0,1,1-2.158,2.158h0A2.158,2.158,0,0,1,436.8,1234.608Zm-6.673,6.081a3.763,3.763,0,1,1-3.763,3.762,3.763,3.763,0,0,1,3.763-3.762Z" transform="translate(23.58 0)" fill="#013b4c" fill-rule="evenodd"/>
      <g id="Group_52" data-name="Group 52" transform="translate(536.419 1216.306)" style="isolation: isolate">
        <path id="Path_519" data-name="Path 519" d="M489.187,1215.654h10.979v38.49h23.785v8.945H489.187Z" transform="translate(-489.187 -1215.654)" fill="#013b4c"/>
      </g>
      <g id="Group_53" data-name="Group 53" transform="translate(477.926 1216.306)" style="isolation: isolate">
        <path id="Path_520" data-name="Path 520" d="M480.771,1252.925H458.747l-4.2,10.165H443.3l21.143-47.436h10.843l21.211,47.436h-11.52Zm-3.455-8.336-7.523-18.161-7.521,18.161Z" transform="translate(-443.296 -1215.654)" fill="#013b4c"/>
      </g>
      <g id="Group_54" data-name="Group 54" transform="translate(379.643 1216.306)" style="isolation: isolate">
        <path id="Path_521" data-name="Path 521" d="M407.39,1242.727a11.869,11.869,0,0,1,2.3,7.419,10.964,10.964,0,0,1-4.845,9.589q-4.847,3.353-14.129,3.355H366.187v-47.436h23.177q8.672,0,13.315,3.322a10.508,10.508,0,0,1,4.642,9.011,11.4,11.4,0,0,1-6.3,10.436A12.505,12.505,0,0,1,407.39,1242.727Zm-30.291-18.8v11.18h10.909a11.007,11.007,0,0,0,6.167-1.422,4.748,4.748,0,0,0,2.1-4.2,4.667,4.667,0,0,0-2.1-4.168,11.236,11.236,0,0,0-6.167-1.388Zm19.346,29.478a4.876,4.876,0,0,0,2.2-4.405q0-5.894-8.741-5.9H377.1v11.724h12.807Q394.24,1254.823,396.445,1253.4Z" transform="translate(-366.187 -1215.654)" fill="#013b4c"/>
      </g>
      <g id="Group_55" data-name="Group 55" transform="translate(632.014 1215.031)" style="isolation: isolate">
        <path id="Path_522" data-name="Path 522" d="M605.39,1241.727a11.869,11.869,0,0,1,2.3,7.419,10.964,10.964,0,0,1-4.845,9.589q-4.847,3.353-14.129,3.355H564.187v-47.436h23.177q8.672,0,13.315,3.322a10.508,10.508,0,0,1,4.642,9.011,11.4,11.4,0,0,1-6.3,10.436A12.5,12.5,0,0,1,605.39,1241.727Zm-30.291-18.8v11.18h10.909a11.006,11.006,0,0,0,6.167-1.422,4.748,4.748,0,0,0,2.1-4.2,4.667,4.667,0,0,0-2.1-4.168,11.234,11.234,0,0,0-6.167-1.388Zm19.346,29.478a4.875,4.875,0,0,0,2.2-4.4q0-5.894-8.741-5.9H575.1v11.724h12.807Q592.24,1253.823,594.445,1252.4Z" transform="translate(-564.187 -1214.654)" fill="#013b4c"/>
      </g>
      <g id="Group_56" data-name="Group 56" transform="translate(317.187 1216.306)" style="isolation: isolate">
        <path id="Path_523" data-name="Path 523" d="M360.354,1263.09l-.068-28.461-13.959,23.446H341.38l-13.892-22.836v27.85h-10.3v-47.436h9.082l17.754,29.478,17.484-29.478h9.013l.136,47.436Z" transform="translate(-317.187 -1215.654)" fill="#013b4c"/>
      </g>
    </g>
  </g>
</svg>
