<svg xmlns="http://www.w3.org/2000/svg" width="234" height="253" viewBox="0 0 234 253">
  <defs>
    <style>
      .cls-1, .cls-4, .cls-6 {
        fill: #013b4c;
      }

      .cls-2 {
        fill: #fff;
      }

      .cls-3 {
        fill: #fd5e7b;
      }

      .cls-4 {
        font-size: 42px;
        font-family: Montserrat-Bold, Montserrat;
        font-weight: 700;
      }

      .cls-5 {
        fill: none;
        stroke: #013b4c;
        stroke-width: 5px;
      }

      .cls-6 {
        fill-rule: evenodd;
      }
    </style>
  </defs>
  <g id="Fever-MboaLab" transform="translate(-819.5 -40)">
    <rect id="Rectangle_29" data-name="Rectangle 29" class="cls-1" width="200" height="201" rx="22" transform="translate(836 40)"/>
    <g id="Group_33" data-name="Group 33" transform="translate(863.083 51.962)">
      <path id="Path_467" data-name="Path 467" class="cls-2" d="M3417.512,1270.769c-3.6-2.908,1.138-4.932,1.138-12.266s.379-7.84-1.138-17.071-2.656-11.634-6.07-21.75-5.69-20.359-5.69-20.359-5.295-19.774,0-36.608,12.248-25.715,20.3-32.625a56.727,56.727,0,0,1,15.31-9.619s10.5-4.7,15.825-5.419c9.646-1.3,16.493-2.4,30.458,1.626s17.417,7.471,25.688,14.416a54.6,54.6,0,0,1,7.913,8.78c6.069,8.238,9.953,17.469,10.585,24.676s-1.138,11.507,0,15.681,3.826,6.07,7.461,10.243,5.058,4.173,7.208,6.449a8.362,8.362,0,0,1,1.517,10.116c-2.182,4.457-7.967,6.828-8.725,8.22s1.06,1.655,2.4,3.667c.726,1.08,1.95,2.2,1.644,3.92-.74,4.154-7.005,9.029-7.005,9.029a9.756,9.756,0,0,1,2.959,2.58,4.71,4.71,0,0,1,.834,3.945c-.36,2.011-.74,2.124-2.276,4.1s-3.737,1.176-4.7,3.035,0,3.718,0,7.132v6.525s-1.518,4.856-7.891,5.614-10.053.152-18.968,2.049-11.192,2.75-18.209,6.07-5.976,3.415-9.863,7.208-3.415,5.311-5.691,7.967.854,4.331-12.9,0S3421.116,1273.677,3417.512,1270.769Z" transform="translate(-3403.398 -1113.859)"/>
      <path id="Path_468" data-name="Path 468" class="cls-3" d="M3417.045,1263.327c-1.377-1.111-2.669-2.708-2.24-4.233.433-1.611,2.24-4.332,2.24-8.864a123.215,123.215,0,0,0-1.013-17.319c-.818-7.364-5.136-19.683-7.5-29.32-.5-1.467,46.912,12,65.458,0s75.419-7.808,73.555-4c-2.182,4.458-7.967,6.828-8.725,8.22s1.06,1.655,2.4,3.667c.726,1.08,1.95,2.2,1.644,3.92-.74,4.154-7.005,9.029-7.005,9.029a9.756,9.756,0,0,1,2.959,2.58,4.71,4.71,0,0,1,.834,3.945c-.36,2.011-.74,2.125-2.276,4.1s-3.737,1.176-4.7,3.035,0,3.718,0,7.132v6.525s-1.518,4.856-7.891,5.615-10.053.152-18.968,2.049-11.192,2.75-18.209,6.07-5.976,3.414-9.863,7.208-3.415,5.311-5.691,7.967.854,4.331-12.9,0S3420.649,1266.236,3417.045,1263.327Z" transform="translate(-3402.991 -1106.418)"/>
      <g id="My-Therm" transform="translate(53.553 53.068)">
        <path id="therm-fluid" class="cls-3" d="M35.165,105.885a11.575,11.575,0,0,1-2.533-22.872V55.4h5.794V83.238a11.554,11.554,0,0,1-3.261,22.647Z" transform="translate(-17.758 -31.677)"/>
        <path id="thermometer-skin" d="M45.977,67.413a17.376,17.376,0,1,1-34.752,0A17.2,17.2,0,0,1,20.09,52.162V13.475A8.845,8.845,0,0,1,28.962,4.79a8.686,8.686,0,0,1,8.688,8.685V52.6a17.348,17.348,0,0,1,8.327,14.813ZM34.756,54.353V13.475a5.791,5.791,0,1,0-11.582,0V54.007a14.51,14.51,0,1,0,11.582.346Z" transform="translate(-11.225 -4.79)"/>
        <path id="therm-bars" d="M74.18,62.306V59.6h9.055v2.711Zm0-8.685h9.055v2.894H74.18Zm0-5.794h9.055v2.9H74.18Zm0-5.977h9.055v2.894L74.18,44.56Zm0-6.161h9.055v3.08H74.18Zm0-5.791h9.055v2.9H74.18Z" transform="translate(-44.672 -18.13)"/>
      </g>
      <g id="Group_24" data-name="Group 24" transform="translate(35.265 21.331)">
        <path id="Path_338" data-name="Path 338" class="cls-3" d="M3685.718,941s-5.254,7.713-3.21,10.956,7.246,2.09,8.521-1.153S3685.718,941,3685.718,941Z" transform="translate(-3682.036 -941)"/>
        <ellipse id="Ellipse_40" data-name="Ellipse 40" class="cls-2" cx="1.091" cy="1.636" rx="1.091" ry="1.636" transform="translate(2.066 6.02)"/>
      </g>
      <g id="Group_25" data-name="Group 25" transform="translate(99.91 34.218)">
        <path id="Path_338-2" data-name="Path 338" class="cls-3" d="M3685.718,941s-5.254,7.713-3.21,10.956,7.246,2.09,8.521-1.153S3685.718,941,3685.718,941Z" transform="translate(-3682.036 -941)"/>
        <ellipse id="Ellipse_40-2" data-name="Ellipse 40" class="cls-2" cx="1.091" cy="1.636" rx="1.091" ry="1.636" transform="translate(2.066 6.02)"/>
      </g>
    </g>
    <g id="text" transform="translate(775.5 89.913)">
      <g id="Group_15" data-name="Group 15" transform="translate(44 151.087)">
        <text id="MB_AL_B" data-name="MB   AL   B" class="cls-4" transform="translate(0 41)"><tspan x="0" y="0" xml:space="preserve">MB   AL   B</tspan></text>
        <g id="Group_8" data-name="Group 8" transform="translate(167.642 9.762)">
          <path id="Subtraction_23" data-name="Subtraction 23" class="cls-1" d="M28.564,32.477h0a2.423,2.423,0,0,0,.291-.426,2.639,2.639,0,0,0,.3-1.2,4.165,4.165,0,0,0-.689-2.245.368.368,0,0,0-.031-.048l0-.007L21.967,18.6l-.012-.019h0c-.146-.224-.212-.327-.219-.35s0-.128,0-.3v0c0-.1,0-.136,0-.164s0-.053,0-.153V13.9a1.936,1.936,0,0,0,1.338-1.828,1.924,1.924,0,0,0-1.92-1.92H14.477a1.921,1.921,0,0,0-.658,3.725l0,3.978c0,.052,0,.1,0,.138s0,.065,0,.094c0,.062,0,.1.007.12a.124.124,0,0,1,0,.039.2.2,0,0,1-.028.044c-.022.03-.058.08-.116.169l-.028.05L7.231,28.56a3.656,3.656,0,0,0-.763,2.089,2.455,2.455,0,0,0,.56,1.607,28.526,28.526,0,0,1-4.778-1c-1.269-.416-2-.881-2.174-1.381-.3-.869.289-2.98,1.754-6.275C3,20.967,4.732,17.571,6.974,13.511,10.795,6.589,14.819.065,14.86,0h5.932l0,0c.163.265,4.034,6.561,7.728,13.261,2.212,4.013,3.938,7.4,5.129,10.061,1.489,3.329,2.142,5.534,1.942,6.553-.118.6-.833,1.136-2.123,1.588a24.653,24.653,0,0,1-4.905,1.011ZM17.4,8.231a.829.829,0,1,0,.829.829A.83.83,0,0,0,17.4,8.231ZM19.789,6.4a1.328,1.328,0,1,0,1.328,1.328A1.33,1.33,0,0,0,19.789,6.4ZM16.778,3.257A1.683,1.683,0,1,0,18.461,4.94,1.685,1.685,0,0,0,16.778,3.257Z" transform="translate(0 0)"/>
          <path id="Path_464" data-name="Path 464" class="cls-5" d="M2389,1297h19.232" transform="translate(-2382.896 -1276.418)"/>
        </g>
      </g>
      <g id="bacteria-infection-virus" transform="translate(117.082 160.076)">
        <path id="Path_2" data-name="Path 2" class="cls-6" d="M15.765,11.2A2.467,2.467,0,1,1,13.3,13.67,2.467,2.467,0,0,1,15.765,11.2ZM13.971,2.048a1.922,1.922,0,1,0-1.983,2.693l1.139,2.247A10.709,10.709,0,0,0,10.26,9.034c-.064.064-.125.125-.186.188L7.34,7.767a2.6,2.6,0,1,0-.971,1.8L8.8,10.858A10.581,10.581,0,0,0,7.256,15l-1.989.029a1.92,1.92,0,1,0,.072,2.041l1.815-.026a10.625,10.625,0,0,0,.4,2.464L2.629,22.179A1.921,1.921,0,1,0,3.85,23.846l4.47-2.418a10.722,10.722,0,0,0,1.945,2.667c.058.058.119.119.18.177L8.228,27.408A2.612,2.612,0,1,0,9.883,28.6l2.166-3.061a10.562,10.562,0,0,0,4.238,1.574l-.368,2.972a2.075,2.075,0,1,0,2.795.971,2.055,2.055,0,0,0-.745-.852l.371-3a10.594,10.594,0,0,0,4.807-1.426l.835,1.183,1.16,1.641A2.607,2.607,0,1,0,26.8,27.411l-1.154-1.629L24.8,24.588q.27-.235.522-.487a10.631,10.631,0,0,0,1.8-2.392l4.72,1.67a1.92,1.92,0,1,0,.652-1.942l-4.56-1.615a10.7,10.7,0,0,0,.09-6.216l2.537-1.238a2.076,2.076,0,1,0-.777-1.9L27.26,11.7a10.7,10.7,0,0,0-1.594-2.3l3.517-3.682a2.613,2.613,0,1,0-1.487-1.406l-3.54,3.714A10.606,10.606,0,0,0,20.67,6.309L20.98,3.7a1.925,1.925,0,1,0-2.021-.365l-.31,2.615c-.284-.023-.568-.035-.858-.035a10.756,10.756,0,0,0-2.734.354l-1.221-2.4a1.906,1.906,0,0,0,.133-1.815Zm9.822,8.515a8.49,8.49,0,1,0,2.484,6,8.459,8.459,0,0,0-2.484-6Zm-1.658,3.409a1.415,1.415,0,1,1-1.415,1.415,1.415,1.415,0,0,1,1.415-1.415ZM17.76,17.958a2.467,2.467,0,1,1-2.467,2.467,2.467,2.467,0,0,1,2.467-2.467Z" transform="translate(-0.008 0.007)"/>
      </g>
    </g>
  </g>
</svg>
