<svg xmlns="http://www.w3.org/2000/svg" width="281.133" height="40.721" viewBox="0 0 281.133 40.721">
  <g id="Main-Text" transform="translate(-317.187 -1213.279)">
    <g id="Group_51" data-name="Group 51">
      <g id="Group_50" data-name="Group 50">
        <g id="Group_49" data-name="Group 49">
          <g id="Subtraction_23" data-name="Subtraction 23">
            <g id="Group_47" data-name="Group 47">
              <path id="Path_518" data-name="Path 518" d="M558.649,1242.085c-1.423-3.175-3.48-7.21-6.118-11.994-4.4-7.989-9.019-15.494-9.213-15.81h-7.072c-.048.078-4.846,7.855-9.4,16.107-2.672,4.841-4.736,8.89-6.133,12.032-1.746,3.933-2.45,6.446-2.089,7.481.205.6,1.076,1.151,2.59,1.643a34.054,34.054,0,0,0,5.7,1.193,2.921,2.921,0,0,1-.667-1.916,4.351,4.351,0,0,1,.909-2.49l7.655-11.978.034-.059a2.414,2.414,0,0,1,.138-.2.248.248,0,0,0,.034-.052.124.124,0,0,0,0-.047c0-.027-.007-.069-.007-.142v-5.021a2.29,2.29,0,0,1,.785-4.441h7.959a2.288,2.288,0,0,1,.694,4.469v4.809a2.574,2.574,0,0,0,0,.353c.008.028.088.15.261.417l.015.023,7.711,11.858.006.008a.417.417,0,0,1,.036.057,4.96,4.96,0,0,1,.821,2.676,3.134,3.134,0,0,1-.361,1.434,2.887,2.887,0,0,1-.348.507l0,0a29.393,29.393,0,0,0,5.848-1.2c1.539-.538,2.391-1.176,2.532-1.893C561.2,1248.683,560.424,1246.054,558.649,1242.085ZM539.27,1226.07a.988.988,0,1,1,.988-.988A.987.987,0,0,1,539.27,1226.07Zm-.737-3.893a2.007,2.007,0,1,1,2.007-2.007A2.006,2.006,0,0,1,538.533,1222.177Zm3.591,2.905a1.583,1.583,0,0,1,0-3.166h0a1.583,1.583,0,0,1,0,3.167Z" fill="#013b4c"/>
            </g>
          </g>
          <g id="Path_464" data-name="Path 464">
            <g id="Group_48" data-name="Group 48">
              <line id="Line_3" data-name="Line 3" x2="22.93" transform="translate(529.516 1238.819)" fill="none" stroke="#013b4c" stroke-width="5"/>
            </g>
          </g>
        </g>
      </g>
    </g>
    <path id="Path_2" data-name="Path 2" d="M421.906,1226.7a2.952,2.952,0,1,1-2.954,2.952,2.953,2.953,0,0,1,2.954-2.952h0Zm-2.148-10.956a2.3,2.3,0,1,0-2.373,3.223l1.363,2.689a12.815,12.815,0,0,0-3.431,2.449c-.076.076-.149.149-.222.225l-3.271-1.742a3.113,3.113,0,1,0-1.162,2.148l2.908,1.547a12.655,12.655,0,0,0-1.846,4.966l-2.38.034a2.3,2.3,0,1,0,.086,2.442l2.172-.031a12.722,12.722,0,0,0,.482,2.951l-5.9,3.19a2.3,2.3,0,1,0,1.461,1.994l5.35-2.893a12.814,12.814,0,0,0,2.326,3.191c.069.07.142.142.215.211l-2.653,3.755a3.127,3.127,0,1,0,1.981,1.423l2.591-3.664a12.643,12.643,0,0,0,5.072,1.884l-.441,3.556a2.475,2.475,0,1,0,2.452.139l.444-3.588a12.685,12.685,0,0,0,5.752-1.707l1,1.415,1.387,1.963a3.121,3.121,0,1,0,1.981-1.422l-1.381-1.954-1.01-1.421q.322-.279.624-.583a12.724,12.724,0,0,0,2.155-2.861l5.648,2a2.3,2.3,0,1,0,.78-2.326l-5.457-1.928a12.8,12.8,0,0,0,.107-7.437l3.037-1.485a2.486,2.486,0,1,0-.93-2.276l-3.015,1.471a12.776,12.776,0,0,0-1.908-2.748l4.208-4.405a3.125,3.125,0,1,0-1.78-1.682l-4.236,4.444a12.686,12.686,0,0,0-4.17-2.053l.372-3.126a2.306,2.306,0,1,0-2.419-.438l-.372,3.129q-.508-.042-1.023-.042a12.9,12.9,0,0,0-3.272.424l-1.463-2.877a2.281,2.281,0,0,0,.16-2.172Zm11.755,10.189a10.159,10.159,0,1,0,2.977,7.181A10.159,10.159,0,0,0,431.513,1225.933Zm-1.985,4.08a1.694,1.694,0,1,1-1.693,1.693h0A1.693,1.693,0,0,1,429.528,1230.013Zm-5.235,4.771a2.952,2.952,0,1,1-2.952,2.952,2.952,2.952,0,0,1,2.952-2.952Z" fill="#013b4c" fill-rule="evenodd"/>
    <g id="Group_52" data-name="Group 52" style="isolation: isolate">
      <path id="Path_519" data-name="Path 519" d="M489.187,1215.654H497.8v30.2h18.661v7.018H489.187Z" fill="#013b4c"/>
    </g>
    <g id="Group_53" data-name="Group 53" style="isolation: isolate">
      <path id="Path_520" data-name="Path 520" d="M472.7,1244.9H455.418l-3.3,7.975H443.3l16.588-37.216h8.507l16.641,37.216h-9.038Zm-2.711-6.54-5.9-14.248-5.9,14.248Z" fill="#013b4c"/>
    </g>
    <g id="Group_54" data-name="Group 54" style="isolation: isolate">
      <path id="Path_521" data-name="Path 521" d="M398.513,1236.894a9.312,9.312,0,0,1,1.807,5.821,8.6,8.6,0,0,1-3.8,7.523q-3.8,2.631-11.085,2.632H366.187v-37.216h18.184q6.8,0,10.446,2.606a8.244,8.244,0,0,1,3.642,7.07,8.943,8.943,0,0,1-4.944,8.188A9.811,9.811,0,0,1,398.513,1236.894Zm-23.765-14.753v8.771h8.559a8.635,8.635,0,0,0,4.838-1.116,3.725,3.725,0,0,0,1.648-3.3,3.661,3.661,0,0,0-1.648-3.27,8.815,8.815,0,0,0-4.838-1.089Zm15.178,23.127a3.825,3.825,0,0,0,1.728-3.456q0-4.625-6.858-4.626H374.748v9.2H384.8A9.549,9.549,0,0,0,389.926,1245.268Z" fill="#013b4c"/>
    </g>
    <g id="Group_55" data-name="Group 55" style="isolation: isolate">
      <path id="Path_522" data-name="Path 522" d="M596.513,1235.894a9.312,9.312,0,0,1,1.807,5.821,8.6,8.6,0,0,1-3.8,7.523q-3.8,2.631-11.085,2.632H564.187v-37.216h18.184q6.8,0,10.446,2.606a8.244,8.244,0,0,1,3.642,7.07,8.943,8.943,0,0,1-4.944,8.188A9.811,9.811,0,0,1,596.513,1235.894Zm-23.765-14.753v8.771h8.559a8.635,8.635,0,0,0,4.838-1.116,3.725,3.725,0,0,0,1.648-3.3,3.661,3.661,0,0,0-1.648-3.27,8.815,8.815,0,0,0-4.838-1.089Zm15.178,23.127a3.825,3.825,0,0,0,1.728-3.456q0-4.625-6.858-4.626H572.748v9.2H582.8A9.549,9.549,0,0,0,587.926,1244.268Z" fill="#013b4c"/>
    </g>
    <g id="Group_56" data-name="Group 56" style="isolation: isolate">
      <path id="Path_523" data-name="Path 523" d="M351.054,1252.87,351,1230.541l-10.952,18.4h-3.881l-10.9-17.916v21.85h-8.082v-37.216h7.125l13.929,23.127,13.717-23.127h7.071l.107,37.216Z" fill="#013b4c"/>
    </g>
  </g>
</svg>
